G75*
G70*
%OFA0B0*%
%FSLAX24Y24*%
%IPPOS*%
%LPD*%
%AMOC8*
5,1,8,0,0,1.08239X$1,22.5*
%
%ADD10C,0.0000*%
%ADD11C,0.0040*%
D10*
X000463Y000150D02*
X007963Y000150D01*
X008463Y000650D01*
X009463Y000650D01*
X009963Y000150D01*
X013963Y000150D01*
X014463Y000650D01*
X015463Y000650D01*
X015963Y000150D01*
X018613Y000150D01*
X019613Y001150D01*
X019613Y004200D01*
X018663Y005150D01*
X015963Y005150D01*
X015463Y004650D01*
X014463Y004650D01*
X013963Y005150D01*
X009963Y005150D01*
X009463Y004650D01*
X008463Y004650D01*
X007963Y005150D01*
X000463Y005150D01*
X000463Y005146D02*
X000463Y000150D01*
X002286Y001784D02*
X002288Y001810D01*
X002294Y001836D01*
X002304Y001861D01*
X002317Y001884D01*
X002333Y001904D01*
X002353Y001922D01*
X002375Y001937D01*
X002398Y001949D01*
X002424Y001957D01*
X002450Y001961D01*
X002476Y001961D01*
X002502Y001957D01*
X002528Y001949D01*
X002552Y001937D01*
X002573Y001922D01*
X002593Y001904D01*
X002609Y001884D01*
X002622Y001861D01*
X002632Y001836D01*
X002638Y001810D01*
X002640Y001784D01*
X002638Y001758D01*
X002632Y001732D01*
X002622Y001707D01*
X002609Y001684D01*
X002593Y001664D01*
X002573Y001646D01*
X002551Y001631D01*
X002528Y001619D01*
X002502Y001611D01*
X002476Y001607D01*
X002450Y001607D01*
X002424Y001611D01*
X002398Y001619D01*
X002374Y001631D01*
X002353Y001646D01*
X002333Y001664D01*
X002317Y001684D01*
X002304Y001707D01*
X002294Y001732D01*
X002288Y001758D01*
X002286Y001784D01*
X002286Y003516D02*
X002288Y003542D01*
X002294Y003568D01*
X002304Y003593D01*
X002317Y003616D01*
X002333Y003636D01*
X002353Y003654D01*
X002375Y003669D01*
X002398Y003681D01*
X002424Y003689D01*
X002450Y003693D01*
X002476Y003693D01*
X002502Y003689D01*
X002528Y003681D01*
X002552Y003669D01*
X002573Y003654D01*
X002593Y003636D01*
X002609Y003616D01*
X002622Y003593D01*
X002632Y003568D01*
X002638Y003542D01*
X002640Y003516D01*
X002638Y003490D01*
X002632Y003464D01*
X002622Y003439D01*
X002609Y003416D01*
X002593Y003396D01*
X002573Y003378D01*
X002551Y003363D01*
X002528Y003351D01*
X002502Y003343D01*
X002476Y003339D01*
X002450Y003339D01*
X002424Y003343D01*
X002398Y003351D01*
X002374Y003363D01*
X002353Y003378D01*
X002333Y003396D01*
X002317Y003416D01*
X002304Y003439D01*
X002294Y003464D01*
X002288Y003490D01*
X002286Y003516D01*
D11*
X017123Y003544D02*
X017343Y003544D01*
X017123Y003691D01*
X017343Y003691D01*
X017306Y003783D02*
X017233Y003783D01*
X017233Y003857D01*
X017306Y003930D02*
X017343Y003893D01*
X017343Y003820D01*
X017306Y003783D01*
X017159Y003783D02*
X017123Y003820D01*
X017123Y003893D01*
X017159Y003930D01*
X017306Y003930D01*
X017343Y003451D02*
X017123Y003451D01*
X017123Y003341D01*
X017159Y003304D01*
X017306Y003304D01*
X017343Y003341D01*
X017343Y003451D01*
X017343Y002980D02*
X017123Y002980D01*
X017196Y002907D01*
X017123Y002833D01*
X017343Y002833D01*
X017306Y002741D02*
X017159Y002741D01*
X017123Y002704D01*
X017123Y002631D01*
X017159Y002594D01*
X017306Y002594D01*
X017343Y002631D01*
X017343Y002704D01*
X017306Y002741D01*
X017306Y002501D02*
X017343Y002464D01*
X017343Y002391D01*
X017306Y002354D01*
X017269Y002354D01*
X017233Y002391D01*
X017233Y002464D01*
X017196Y002501D01*
X017159Y002501D01*
X017123Y002464D01*
X017123Y002391D01*
X017159Y002354D01*
X017123Y002262D02*
X017123Y002188D01*
X017123Y002225D02*
X017343Y002225D01*
X017343Y002262D02*
X017343Y002188D01*
X017269Y001830D02*
X017123Y001830D01*
X017269Y001830D02*
X017343Y001757D01*
X017269Y001683D01*
X017123Y001683D01*
X017159Y001591D02*
X017306Y001591D01*
X017343Y001554D01*
X017343Y001481D01*
X017306Y001444D01*
X017306Y001351D02*
X017159Y001351D01*
X017123Y001314D01*
X017123Y001241D01*
X017159Y001204D01*
X017306Y001204D02*
X017343Y001241D01*
X017343Y001314D01*
X017306Y001351D01*
X017159Y001444D02*
X017123Y001481D01*
X017123Y001554D01*
X017159Y001591D01*
M02*
