G75*
G70*
%OFA0B0*%
%FSLAX24Y24*%
%IPPOS*%
%LPD*%
%AMOC8*
5,1,8,0,0,1.08239X$1,22.5*
%
%ADD10C,0.0100*%
%ADD11C,0.0040*%
%ADD12C,0.0060*%
%ADD13C,0.0200*%
%ADD14C,0.0070*%
%ADD15C,0.0434*%
%ADD16C,0.0820*%
%ADD17OC8,0.0820*%
D10*
X006964Y001701D02*
X007057Y001619D01*
X007146Y001533D01*
X007232Y001444D01*
X007314Y001351D01*
X007313Y001350D02*
X007323Y001328D01*
X007330Y001305D01*
X007333Y001282D01*
X007332Y001258D01*
X007329Y001234D01*
X007321Y001211D01*
X007311Y001190D01*
X007297Y001170D01*
X007281Y001153D01*
X007262Y001138D01*
X007242Y001126D01*
X007219Y001117D01*
X007196Y001111D01*
X007172Y001109D01*
X007148Y001110D01*
X007125Y001115D01*
X007102Y001124D01*
X007081Y001135D01*
X007062Y001150D01*
X006982Y001233D01*
X006905Y001319D01*
X006832Y001408D01*
X006762Y001500D01*
X017463Y001454D02*
X019463Y001454D01*
X019463Y001356D02*
X017463Y001356D01*
X017463Y001350D02*
X017463Y001850D01*
X019463Y001850D01*
X019463Y001350D01*
X017463Y001350D01*
X017463Y001553D02*
X019463Y001553D01*
X019463Y001651D02*
X017463Y001651D01*
X017463Y001750D02*
X019463Y001750D01*
X019463Y001848D02*
X017463Y001848D01*
X017463Y002350D02*
X017463Y002850D01*
X019463Y002850D01*
X019463Y002350D01*
X017463Y002350D01*
X017463Y002439D02*
X019463Y002439D01*
X019463Y002538D02*
X017463Y002538D01*
X017463Y002636D02*
X019463Y002636D01*
X019463Y002735D02*
X017463Y002735D01*
X017463Y002833D02*
X019463Y002833D01*
X019463Y003350D02*
X017463Y003350D01*
X017463Y003850D01*
X019463Y003850D01*
X019463Y003350D01*
X019463Y003424D02*
X017463Y003424D01*
X017463Y003523D02*
X019463Y003523D01*
X019463Y003621D02*
X017463Y003621D01*
X017463Y003720D02*
X019463Y003720D01*
X019463Y003818D02*
X017463Y003818D01*
D11*
X013243Y003017D02*
X013169Y003017D01*
X013206Y003053D02*
X013206Y002907D01*
X013169Y002870D01*
X013083Y002870D02*
X013010Y002870D01*
X013047Y002870D02*
X013047Y003017D01*
X013083Y003017D01*
X013047Y003090D02*
X013047Y003127D01*
X012924Y003017D02*
X012814Y003017D01*
X012777Y002980D01*
X012777Y002870D01*
X012684Y002907D02*
X012648Y002870D01*
X012537Y002870D01*
X012537Y002833D02*
X012574Y002797D01*
X012611Y002797D01*
X012537Y002833D02*
X012537Y003017D01*
X012445Y002980D02*
X012298Y002980D01*
X012205Y003017D02*
X012132Y003017D01*
X012169Y003053D02*
X012169Y002907D01*
X012132Y002870D01*
X012046Y002870D02*
X011972Y002870D01*
X012009Y002870D02*
X012009Y003017D01*
X012046Y003017D01*
X012009Y003090D02*
X012009Y003127D01*
X011886Y003017D02*
X011776Y003017D01*
X011739Y002980D01*
X011739Y002870D01*
X011647Y002907D02*
X011610Y002870D01*
X011500Y002870D01*
X011500Y002833D02*
X011537Y002797D01*
X011573Y002797D01*
X011500Y002833D02*
X011500Y003017D01*
X011407Y002980D02*
X011261Y002980D01*
X011168Y003017D02*
X011131Y003017D01*
X011131Y002870D01*
X011095Y002870D02*
X011168Y002870D01*
X011008Y002870D02*
X010898Y002870D01*
X010862Y002907D01*
X010898Y002943D01*
X010972Y002943D01*
X011008Y002980D01*
X010972Y003017D01*
X010862Y003017D01*
X010769Y003017D02*
X010659Y003017D01*
X010622Y002980D01*
X010622Y002907D01*
X010659Y002870D01*
X010769Y002870D01*
X010769Y002797D02*
X010769Y003017D01*
X011131Y003090D02*
X011131Y003127D01*
X011647Y003017D02*
X011647Y002907D01*
X011886Y002870D02*
X011886Y003017D01*
X012684Y003017D02*
X012684Y002907D01*
X012924Y002870D02*
X012924Y003017D01*
X012930Y002640D02*
X012930Y002420D01*
X013003Y002420D02*
X012857Y002420D01*
X013096Y002567D02*
X013169Y002420D01*
X013243Y002567D01*
X013003Y002567D02*
X012930Y002640D01*
X012525Y002603D02*
X012488Y002640D01*
X012415Y002640D01*
X012378Y002603D01*
X012378Y002567D01*
X012525Y002420D01*
X012378Y002420D01*
X012285Y002457D02*
X012249Y002420D01*
X012175Y002420D01*
X012138Y002457D01*
X012138Y002530D01*
X012175Y002567D01*
X012212Y002567D01*
X012285Y002530D01*
X012285Y002640D01*
X012138Y002640D01*
X012046Y002603D02*
X012046Y002457D01*
X012009Y002420D01*
X011936Y002420D01*
X011899Y002457D01*
X011899Y002603D01*
X011936Y002640D01*
X012009Y002640D01*
X012046Y002603D01*
X011806Y002603D02*
X011770Y002640D01*
X011696Y002640D01*
X011660Y002603D01*
X011567Y002640D02*
X011420Y002640D01*
X011494Y002640D02*
X011494Y002420D01*
X011328Y002420D02*
X011181Y002567D01*
X011181Y002603D01*
X011218Y002640D01*
X011291Y002640D01*
X011328Y002603D01*
X011088Y002603D02*
X011051Y002640D01*
X010978Y002640D01*
X010941Y002603D01*
X011088Y002457D01*
X011051Y002420D01*
X010978Y002420D01*
X010941Y002457D01*
X010941Y002603D01*
X010849Y002567D02*
X010775Y002640D01*
X010775Y002420D01*
X010702Y002420D02*
X010849Y002420D01*
X010609Y002457D02*
X010573Y002420D01*
X010499Y002420D01*
X010463Y002457D01*
X010463Y002493D01*
X010499Y002530D01*
X010536Y002530D01*
X010499Y002530D02*
X010463Y002567D01*
X010463Y002603D01*
X010499Y002640D01*
X010573Y002640D01*
X010609Y002603D01*
X011088Y002603D02*
X011088Y002457D01*
X011181Y002420D02*
X011328Y002420D01*
X011660Y002457D02*
X011696Y002420D01*
X011770Y002420D01*
X011806Y002457D01*
X011806Y002603D01*
X010692Y002277D02*
X010692Y002240D01*
X010692Y002167D02*
X010692Y002020D01*
X010656Y002020D02*
X010729Y002020D01*
X010822Y002020D02*
X010932Y002020D01*
X010968Y002057D01*
X010932Y002093D01*
X010822Y002093D01*
X010822Y002130D02*
X010822Y002020D01*
X011061Y002020D02*
X011061Y002130D01*
X011098Y002167D01*
X011135Y002130D01*
X011135Y002020D01*
X011208Y002020D02*
X011208Y002167D01*
X011171Y002167D01*
X011135Y002130D01*
X011301Y002167D02*
X011411Y002167D01*
X011447Y002130D01*
X011447Y002057D01*
X011411Y002020D01*
X011301Y002020D01*
X011301Y001983D02*
X011301Y002167D01*
X011540Y002203D02*
X011540Y002130D01*
X011577Y002093D01*
X011577Y002167D01*
X011650Y002167D01*
X011650Y002093D01*
X011577Y002093D01*
X011540Y002057D02*
X011577Y002020D01*
X011650Y002020D01*
X011687Y002057D01*
X011687Y002203D01*
X011650Y002240D01*
X011577Y002240D01*
X011540Y002203D01*
X011779Y002130D02*
X011816Y002167D01*
X011889Y002167D01*
X011926Y002130D01*
X011926Y002057D01*
X011889Y002020D01*
X011816Y002020D01*
X011779Y002057D01*
X011779Y002130D01*
X012019Y002130D02*
X012019Y002020D01*
X012092Y002020D02*
X012092Y002130D01*
X012055Y002167D01*
X012019Y002130D01*
X012092Y002130D02*
X012129Y002167D01*
X012166Y002167D01*
X012166Y002020D01*
X012295Y002020D02*
X012368Y002020D01*
X012405Y002057D01*
X012405Y002130D01*
X012368Y002167D01*
X012295Y002167D01*
X012258Y002130D01*
X012258Y002093D01*
X012405Y002093D01*
X012498Y002167D02*
X012608Y002167D01*
X012644Y002130D01*
X012644Y002057D01*
X012608Y002020D01*
X012498Y002020D01*
X012498Y002240D01*
X012734Y002167D02*
X012844Y002093D01*
X012734Y002020D01*
X012844Y002020D02*
X012844Y002240D01*
X012936Y002130D02*
X012973Y002167D01*
X013047Y002167D01*
X013083Y002130D01*
X013083Y002057D01*
X013047Y002020D01*
X012973Y002020D01*
X013169Y002020D02*
X013206Y002057D01*
X013206Y002203D01*
X013243Y002167D02*
X013169Y002167D01*
X013083Y002093D02*
X012936Y002093D01*
X012936Y002130D01*
X011374Y001947D02*
X011337Y001947D01*
X011301Y001983D01*
X010932Y002167D02*
X010858Y002167D01*
X010822Y002130D01*
X010729Y002167D02*
X010692Y002167D01*
X010569Y002240D02*
X010533Y002240D01*
X010533Y002020D01*
X010569Y002020D02*
X010496Y002020D01*
X010410Y002020D02*
X010410Y002057D01*
X010373Y002057D01*
X010373Y002020D01*
X010410Y002020D01*
X010290Y002057D02*
X010253Y002020D01*
X010143Y002020D01*
X010051Y002057D02*
X010014Y002020D01*
X009941Y002020D01*
X009904Y002057D01*
X009904Y002130D01*
X009941Y002167D01*
X010014Y002167D01*
X010051Y002130D01*
X010051Y002057D01*
X009811Y002020D02*
X009811Y002167D01*
X009775Y002167D01*
X009738Y002130D01*
X009701Y002167D01*
X009665Y002130D01*
X009665Y002020D01*
X009738Y002020D02*
X009738Y002130D01*
X010143Y002167D02*
X010253Y002167D01*
X010290Y002130D01*
X010290Y002057D01*
D12*
X011726Y003457D02*
X011808Y003457D01*
X011759Y003424D02*
X011971Y003566D01*
X011759Y003778D01*
X011617Y003566D01*
X011759Y003424D01*
X011667Y003516D02*
X011895Y003516D01*
X011933Y003540D02*
X011860Y003593D01*
X011798Y003657D01*
X011748Y003732D01*
X011711Y003813D01*
X011689Y003900D01*
X011683Y003990D01*
X011690Y004077D01*
X011713Y004161D01*
X011750Y004240D01*
X011800Y004311D01*
X011861Y004373D01*
X011933Y004423D01*
X012012Y004460D01*
X012096Y004482D01*
X012183Y004490D01*
X012270Y004482D01*
X012354Y004460D01*
X012433Y004423D01*
X012504Y004373D01*
X012566Y004311D01*
X012616Y004240D01*
X012653Y004161D01*
X012675Y004077D01*
X012683Y003990D01*
X012676Y003900D01*
X012655Y003813D01*
X012618Y003732D01*
X012568Y003657D01*
X012505Y003593D01*
X012433Y003540D01*
X012303Y003770D01*
X012413Y003580D01*
X012380Y003557D01*
X012343Y003540D01*
X012273Y003760D01*
X012303Y003770D01*
X012346Y003801D01*
X012383Y003840D01*
X012410Y003886D01*
X012427Y003937D01*
X012433Y003990D01*
X012428Y004039D01*
X012414Y004086D01*
X012391Y004129D01*
X012360Y004167D01*
X012322Y004198D01*
X012279Y004221D01*
X012232Y004235D01*
X012183Y004240D01*
X012134Y004235D01*
X012087Y004221D01*
X012044Y004198D01*
X012006Y004167D01*
X011975Y004129D01*
X011952Y004086D01*
X011938Y004039D01*
X011933Y003990D01*
X011939Y003937D01*
X011956Y003886D01*
X011983Y003840D01*
X012019Y003801D01*
X012063Y003770D01*
X011953Y003580D01*
X011981Y003557D01*
X012013Y003540D01*
X012083Y003750D01*
X012063Y003770D01*
X011953Y003580D01*
X011952Y003574D02*
X011886Y003574D01*
X011933Y003540D02*
X012063Y003770D01*
X012051Y003750D02*
X011739Y003750D01*
X011740Y003750D02*
X011787Y003750D01*
X011713Y003808D02*
X012013Y003808D01*
X012051Y003750D02*
X012083Y003750D01*
X012276Y003750D02*
X012315Y003750D01*
X012314Y003750D02*
X012626Y003750D01*
X012579Y003750D01*
X012607Y003778D02*
X012749Y003566D01*
X012607Y003424D01*
X012395Y003566D01*
X012607Y003778D01*
X012652Y003808D02*
X012353Y003808D01*
X012398Y003867D02*
X012668Y003867D01*
X012633Y003867D02*
X012766Y003867D01*
X012678Y003925D02*
X012423Y003925D01*
X012432Y003984D02*
X012682Y003984D01*
X012633Y003984D02*
X012883Y003984D01*
X012883Y004042D02*
X012633Y004042D01*
X012678Y004042D02*
X012427Y004042D01*
X012406Y004101D02*
X012669Y004101D01*
X012633Y004101D02*
X012830Y004101D01*
X012883Y004090D02*
X012633Y004140D01*
X012633Y003840D01*
X012883Y003890D01*
X012883Y004090D01*
X012653Y004159D02*
X012366Y004159D01*
X012285Y004218D02*
X012626Y004218D01*
X012617Y004218D02*
X012592Y004218D01*
X012607Y004202D02*
X012395Y004414D01*
X012607Y004556D01*
X012749Y004414D01*
X012607Y004202D01*
X012591Y004276D02*
X011775Y004276D01*
X011832Y004276D02*
X011709Y004276D01*
X011739Y004218D02*
X012081Y004218D01*
X012000Y004159D02*
X011712Y004159D01*
X011733Y004140D02*
X011733Y003840D01*
X011483Y003890D01*
X011483Y004090D01*
X011733Y004140D01*
X011733Y004101D02*
X011536Y004101D01*
X011483Y004042D02*
X011733Y004042D01*
X011687Y004042D02*
X011939Y004042D01*
X011934Y003984D02*
X011683Y003984D01*
X011733Y003984D02*
X011483Y003984D01*
X011483Y003925D02*
X011733Y003925D01*
X011687Y003925D02*
X011943Y003925D01*
X011968Y003867D02*
X011698Y003867D01*
X011733Y003867D02*
X011600Y003867D01*
X011701Y003691D02*
X011845Y003691D01*
X011822Y003633D02*
X011985Y003633D01*
X011983Y003633D02*
X012044Y003633D01*
X012063Y003691D02*
X012017Y003691D01*
X012018Y003691D02*
X011775Y003691D01*
X011662Y003633D02*
X011904Y003633D01*
X011960Y003574D02*
X012024Y003574D01*
X011962Y003574D02*
X011623Y003574D01*
X012295Y003691D02*
X012349Y003691D01*
X012347Y003691D02*
X012591Y003691D01*
X012520Y003691D02*
X012665Y003691D01*
X012704Y003633D02*
X012462Y003633D01*
X012480Y003574D02*
X012414Y003574D01*
X012404Y003574D02*
X012332Y003574D01*
X012313Y003633D02*
X012382Y003633D01*
X012381Y003633D02*
X012544Y003633D01*
X012403Y003574D02*
X012743Y003574D01*
X012698Y003516D02*
X012470Y003516D01*
X012558Y003457D02*
X012640Y003457D01*
X012633Y003925D02*
X012883Y003925D01*
X011960Y004101D02*
X011697Y004101D01*
X011759Y004202D02*
X011617Y004414D01*
X011759Y004556D01*
X011971Y004414D01*
X011759Y004202D01*
X011748Y004218D02*
X011774Y004218D01*
X011823Y004335D02*
X012543Y004335D01*
X012475Y004335D02*
X012695Y004335D01*
X012734Y004393D02*
X012416Y004393D01*
X012476Y004393D02*
X011890Y004393D01*
X011891Y004335D02*
X011670Y004335D01*
X011631Y004393D02*
X011949Y004393D01*
X011915Y004452D02*
X011654Y004452D01*
X011713Y004510D02*
X011827Y004510D01*
X011994Y004452D02*
X012372Y004452D01*
X012333Y004440D02*
X012033Y004440D01*
X012083Y004690D01*
X012283Y004690D01*
X012333Y004440D01*
X012331Y004452D02*
X012035Y004452D01*
X012047Y004510D02*
X012319Y004510D01*
X012307Y004569D02*
X012059Y004569D01*
X012070Y004627D02*
X012295Y004627D01*
X012284Y004686D02*
X012082Y004686D01*
X012539Y004510D02*
X012653Y004510D01*
X012711Y004452D02*
X012451Y004452D01*
X012533Y004276D02*
X012656Y004276D01*
D13*
X007163Y003150D02*
X007166Y003187D01*
X007167Y003223D01*
X007163Y003259D01*
X007156Y003295D01*
X007144Y003330D01*
X007130Y003363D01*
X007112Y003395D01*
X007091Y003425D01*
X007067Y003452D01*
X007040Y003477D01*
X007011Y003499D01*
X006979Y003517D01*
X006946Y003533D01*
X006912Y003544D01*
X006876Y003553D01*
X006840Y003557D01*
X006804Y003558D01*
X006767Y003555D01*
X006731Y003548D01*
X006697Y003537D01*
X006663Y003523D01*
X006631Y003506D01*
X006601Y003485D01*
X006573Y003462D01*
X006548Y003435D01*
X006526Y003406D01*
X006506Y003375D01*
X006491Y003343D01*
X006478Y003308D01*
X006469Y003273D01*
X006464Y003237D01*
X006463Y003200D01*
X005963Y003150D02*
X005966Y003184D01*
X005967Y003219D01*
X005963Y003254D01*
X005956Y003288D01*
X005945Y003321D01*
X005930Y003353D01*
X005913Y003384D01*
X005892Y003412D01*
X005868Y003437D01*
X005842Y003460D01*
X005813Y003480D01*
X005783Y003497D01*
X005750Y003511D01*
X005717Y003521D01*
X005682Y003527D01*
X005648Y003530D01*
X005613Y003529D01*
X005578Y003524D01*
X005544Y003516D01*
X005511Y003504D01*
X005480Y003488D01*
X005450Y003469D01*
X005423Y003448D01*
X005398Y003423D01*
X005376Y003396D01*
X005357Y003367D01*
X005341Y003336D01*
X005329Y003303D01*
X005320Y003269D01*
X005315Y003234D01*
X005313Y003200D01*
X007163Y002300D02*
X007161Y002242D01*
X007156Y002183D01*
X007148Y002125D01*
X007136Y002068D01*
X007121Y002012D01*
X007102Y001956D01*
X007080Y001902D01*
X007055Y001849D01*
X007028Y001797D01*
X006997Y001748D01*
X006963Y001700D01*
X006163Y001300D02*
X006102Y001304D01*
X006041Y001311D01*
X005981Y001322D01*
X005921Y001337D01*
X005863Y001356D01*
X005806Y001378D01*
X005750Y001404D01*
X005697Y001433D01*
X005645Y001465D01*
X005595Y001501D01*
X005547Y001540D01*
X005503Y001582D01*
X005460Y001626D01*
X005421Y001673D01*
X005385Y001722D01*
X005352Y001774D01*
X005322Y001827D01*
X005295Y001883D01*
X005273Y001939D01*
X005253Y001998D01*
X005238Y002057D01*
X005226Y002117D01*
X005218Y002178D01*
X005214Y002239D01*
X005213Y002300D01*
X006163Y001300D02*
X006221Y001302D01*
X006280Y001307D01*
X006338Y001315D01*
X006395Y001327D01*
X006451Y001342D01*
X006507Y001361D01*
X006561Y001383D01*
X006614Y001408D01*
X006666Y001435D01*
X006715Y001466D01*
X006763Y001500D01*
D14*
X006663Y001650D01*
X006763Y001700D02*
X007113Y001350D01*
X006963Y001700D02*
X006813Y001800D01*
D15*
X002463Y001784D03*
X002463Y003516D03*
D16*
X008963Y003650D03*
X008963Y002650D03*
X008963Y001650D03*
D17*
X014963Y001650D03*
X015963Y001650D03*
X015963Y002650D03*
X014963Y002650D03*
X014963Y003650D03*
X015963Y003650D03*
M02*
