G75*
G70*
%OFA0B0*%
%FSLAX24Y24*%
%IPPOS*%
%LPD*%
%AMOC8*
5,1,8,0,0,1.08239X$1,22.5*
%
%ADD10C,0.0120*%
%ADD11C,0.0000*%
D10*
X000463Y000160D02*
X007963Y000160D01*
X008463Y000660D01*
X009463Y000660D01*
X009963Y000160D01*
X013963Y000160D01*
X014463Y000660D01*
X015463Y000660D01*
X015963Y000160D01*
X018613Y000160D01*
X019613Y001160D01*
X019613Y004210D01*
X018663Y005160D01*
X015963Y005160D01*
X015463Y004660D01*
X014463Y004660D01*
X013963Y005160D01*
X009963Y005160D01*
X009463Y004660D01*
X008463Y004660D01*
X007963Y005160D01*
X000463Y005160D01*
X000463Y005156D02*
X000463Y000160D01*
D11*
X002286Y001794D02*
X002288Y001820D01*
X002294Y001846D01*
X002304Y001871D01*
X002317Y001894D01*
X002333Y001914D01*
X002353Y001932D01*
X002375Y001947D01*
X002398Y001959D01*
X002424Y001967D01*
X002450Y001971D01*
X002476Y001971D01*
X002502Y001967D01*
X002528Y001959D01*
X002552Y001947D01*
X002573Y001932D01*
X002593Y001914D01*
X002609Y001894D01*
X002622Y001871D01*
X002632Y001846D01*
X002638Y001820D01*
X002640Y001794D01*
X002638Y001768D01*
X002632Y001742D01*
X002622Y001717D01*
X002609Y001694D01*
X002593Y001674D01*
X002573Y001656D01*
X002551Y001641D01*
X002528Y001629D01*
X002502Y001621D01*
X002476Y001617D01*
X002450Y001617D01*
X002424Y001621D01*
X002398Y001629D01*
X002374Y001641D01*
X002353Y001656D01*
X002333Y001674D01*
X002317Y001694D01*
X002304Y001717D01*
X002294Y001742D01*
X002288Y001768D01*
X002286Y001794D01*
X002286Y003526D02*
X002288Y003552D01*
X002294Y003578D01*
X002304Y003603D01*
X002317Y003626D01*
X002333Y003646D01*
X002353Y003664D01*
X002375Y003679D01*
X002398Y003691D01*
X002424Y003699D01*
X002450Y003703D01*
X002476Y003703D01*
X002502Y003699D01*
X002528Y003691D01*
X002552Y003679D01*
X002573Y003664D01*
X002593Y003646D01*
X002609Y003626D01*
X002622Y003603D01*
X002632Y003578D01*
X002638Y003552D01*
X002640Y003526D01*
X002638Y003500D01*
X002632Y003474D01*
X002622Y003449D01*
X002609Y003426D01*
X002593Y003406D01*
X002573Y003388D01*
X002551Y003373D01*
X002528Y003361D01*
X002502Y003353D01*
X002476Y003349D01*
X002450Y003349D01*
X002424Y003353D01*
X002398Y003361D01*
X002374Y003373D01*
X002353Y003388D01*
X002333Y003406D01*
X002317Y003426D01*
X002304Y003449D01*
X002294Y003474D01*
X002288Y003500D01*
X002286Y003526D01*
M02*
