G75*
G70*
%OFA0B0*%
%FSLAX24Y24*%
%IPPOS*%
%LPD*%
%AMOC8*
5,1,8,0,0,1.08239X$1,22.5*
%
%ADD10R,0.0870X0.0240*%
%ADD11R,0.0315X0.0472*%
%ADD12R,0.0248X0.0327*%
%ADD13R,0.0276X0.0276*%
%ADD14R,0.0984X0.0197*%
%ADD15R,0.0984X0.0787*%
%ADD16R,0.0217X0.0472*%
%ADD17C,0.0740*%
%ADD18R,0.0433X0.0394*%
%ADD19R,0.0394X0.0433*%
%ADD20OC8,0.0740*%
%ADD21C,0.0160*%
%ADD22C,0.0100*%
%ADD23C,0.0340*%
%ADD24C,0.0080*%
D10*
X010633Y002400D03*
X010633Y002900D03*
X010633Y003400D03*
X010633Y003900D03*
X013283Y003900D03*
X013283Y003400D03*
X013283Y002900D03*
X013283Y002400D03*
D11*
X005817Y002650D03*
X005109Y002650D03*
X005109Y003650D03*
X005817Y003650D03*
X005817Y004650D03*
X005109Y004650D03*
D12*
X006510Y004400D03*
X007416Y004400D03*
X007416Y003650D03*
X006510Y003650D03*
D13*
X010463Y001714D03*
X011463Y001714D03*
X012463Y001714D03*
X013463Y001714D03*
X013719Y000986D03*
X013207Y000986D03*
X012719Y000986D03*
X012207Y000986D03*
X011719Y000986D03*
X011207Y000986D03*
X010719Y000986D03*
X010207Y000986D03*
D14*
X003447Y002020D03*
X003447Y002335D03*
X003447Y002650D03*
X003447Y002965D03*
X003447Y003280D03*
D15*
X003447Y004422D03*
X001282Y004422D03*
X001282Y000878D03*
X003447Y000878D03*
D16*
X006389Y001338D03*
X006763Y001338D03*
X007137Y001338D03*
X007137Y002362D03*
X006389Y002362D03*
D17*
X008963Y002650D03*
X008963Y001650D03*
X008963Y003650D03*
D18*
X011678Y004500D03*
X012347Y004500D03*
D19*
X007813Y002135D03*
X007813Y001465D03*
X005013Y001635D03*
X005013Y000965D03*
D20*
X014963Y001650D03*
X015963Y001650D03*
X015963Y002650D03*
X014963Y002650D03*
X014963Y003650D03*
X015963Y003650D03*
D21*
X014963Y003650D02*
X013713Y004650D01*
X013213Y004650D01*
X011678Y004550D02*
X011678Y004500D01*
X011678Y004550D02*
X010963Y004550D01*
X010633Y003900D02*
X011763Y003900D01*
X011763Y002200D01*
X011613Y002050D01*
X011263Y002050D01*
X010913Y001750D01*
X010463Y001714D01*
X010207Y001400D02*
X009663Y001400D01*
X009663Y002050D01*
X008963Y002650D01*
X009863Y002550D02*
X010633Y002400D01*
X011463Y001714D02*
X012063Y001864D01*
X012063Y003400D01*
X013283Y003400D01*
X013283Y002900D02*
X012463Y002900D01*
X012463Y001714D01*
X013463Y001714D02*
X013463Y002400D01*
X013283Y002400D01*
X014713Y001400D02*
X014963Y001650D01*
X014713Y001400D02*
X013207Y001400D01*
X013207Y000986D01*
X012719Y000986D02*
X012713Y000600D01*
X011713Y000600D02*
X011719Y000986D01*
X012207Y000986D02*
X012207Y001400D01*
X011207Y001400D01*
X011207Y000986D01*
X010719Y000986D02*
X010719Y000650D01*
X010713Y000600D01*
X010207Y000986D02*
X010207Y001400D01*
X011207Y001400D01*
X012207Y001400D02*
X013207Y001400D01*
X008963Y001650D02*
X008478Y002135D01*
X007813Y002135D01*
X007463Y002485D01*
X007463Y002850D01*
X006389Y002850D01*
X006389Y002362D01*
X005817Y002650D02*
X005463Y002650D01*
X005463Y000965D01*
X005639Y000965D01*
X006389Y001338D01*
X006389Y001800D01*
X007137Y001800D01*
X007137Y001338D01*
X006763Y001338D02*
X006763Y000750D01*
X007813Y000750D01*
X007813Y001465D01*
X005463Y000965D02*
X005013Y000965D01*
X004463Y001150D02*
X004463Y001650D01*
X004463Y001635D01*
X004963Y001635D01*
X004963Y002020D01*
X003447Y002020D01*
X004463Y002000D02*
X004463Y001650D01*
X004963Y001635D02*
X005013Y001635D01*
X004463Y001150D02*
X004463Y000650D01*
X004713Y002965D02*
X003447Y002965D01*
X004713Y002965D02*
X004713Y004650D01*
X005109Y004650D01*
X007416Y004400D02*
X007816Y004047D01*
X007813Y003650D01*
X007416Y003650D01*
D22*
X000663Y004950D02*
X000663Y000350D01*
X007880Y000350D01*
X008380Y000850D01*
X009546Y000850D01*
X009663Y000733D01*
X010046Y000350D01*
X010585Y000350D01*
X010554Y000363D01*
X010475Y000441D01*
X010433Y000544D01*
X010433Y000656D01*
X010475Y000759D01*
X010495Y000778D01*
X010471Y000802D01*
X010471Y001169D01*
X010512Y001210D01*
X010414Y001210D01*
X010455Y001169D01*
X010455Y000802D01*
X010390Y000738D01*
X010024Y000738D01*
X009959Y000802D01*
X009959Y001169D01*
X010000Y001210D01*
X009584Y001210D01*
X009473Y001321D01*
X009473Y001963D01*
X009175Y002218D01*
X009058Y002170D01*
X008867Y002170D01*
X008691Y002243D01*
X008556Y002378D01*
X008483Y002555D01*
X008483Y002745D01*
X008556Y002922D01*
X008634Y003000D01*
X007582Y003000D01*
X007653Y002929D01*
X007653Y002563D01*
X007755Y002461D01*
X008055Y002461D01*
X008120Y002397D01*
X008120Y002325D01*
X008557Y002325D01*
X008785Y002096D01*
X008867Y002130D01*
X009058Y002130D01*
X009235Y002057D01*
X009370Y001922D01*
X009443Y001745D01*
X009443Y001555D01*
X009370Y001378D01*
X009235Y001243D01*
X009058Y001170D01*
X008867Y001170D01*
X008691Y001243D01*
X008556Y001378D01*
X008483Y001555D01*
X008483Y001745D01*
X008517Y001827D01*
X008399Y001945D01*
X008120Y001945D01*
X008120Y001873D01*
X008055Y001808D01*
X007570Y001808D01*
X007506Y001873D01*
X007506Y002173D01*
X007355Y002324D01*
X007355Y002080D01*
X007291Y002016D01*
X006983Y002016D01*
X006919Y002080D01*
X006919Y002644D01*
X006935Y002660D01*
X006591Y002660D01*
X006607Y002644D01*
X006607Y002080D01*
X006543Y002016D01*
X006235Y002016D01*
X006171Y002080D01*
X006171Y002644D01*
X006199Y002672D01*
X006199Y002929D01*
X006310Y003040D01*
X006408Y003040D01*
X006360Y003088D01*
X006360Y003377D01*
X006340Y003377D01*
X006276Y003441D01*
X006276Y003500D01*
X006085Y003500D01*
X006085Y003368D01*
X006020Y003304D01*
X005614Y003304D01*
X005550Y003368D01*
X005550Y003932D01*
X005614Y003996D01*
X006020Y003996D01*
X006085Y003932D01*
X006085Y003800D01*
X006276Y003800D01*
X006276Y003859D01*
X006340Y003923D01*
X006680Y003923D01*
X006744Y003859D01*
X006744Y003441D01*
X006680Y003377D01*
X006660Y003377D01*
X006660Y003300D01*
X008577Y003300D01*
X008566Y003311D01*
X008518Y003377D01*
X008481Y003450D01*
X008456Y003528D01*
X008444Y003600D01*
X008913Y003600D01*
X008913Y003700D01*
X008444Y003700D01*
X008456Y003772D01*
X008481Y003850D01*
X008518Y003923D01*
X008566Y003989D01*
X008624Y004047D01*
X008690Y004095D01*
X008701Y004100D01*
X008474Y004100D01*
X008424Y004092D01*
X008414Y004100D01*
X008401Y004100D01*
X008365Y004136D01*
X007664Y004650D01*
X007609Y004650D01*
X007650Y004609D01*
X007650Y004447D01*
X007888Y004237D01*
X007896Y004237D01*
X007946Y004185D01*
X008000Y004138D01*
X008001Y004130D01*
X008006Y004125D01*
X008006Y004053D01*
X008010Y003981D01*
X008005Y003975D01*
X008004Y003855D01*
X008050Y003809D01*
X008093Y003706D01*
X008093Y003594D01*
X008050Y003491D01*
X007971Y003413D01*
X007869Y003370D01*
X007757Y003370D01*
X007654Y003413D01*
X007638Y003429D01*
X007585Y003377D01*
X007246Y003377D01*
X007182Y003441D01*
X007182Y003859D01*
X007246Y003923D01*
X007585Y003923D01*
X007624Y003884D01*
X007625Y003962D01*
X007438Y004127D01*
X007246Y004127D01*
X007182Y004191D01*
X007182Y004606D01*
X007181Y004606D01*
X007182Y004606D02*
X007091Y004552D01*
X007090Y004549D01*
X007038Y004520D01*
X006987Y004489D01*
X006984Y004490D01*
X006744Y004358D01*
X006744Y004191D01*
X006680Y004127D01*
X006340Y004127D01*
X006276Y004191D01*
X006276Y004325D01*
X006085Y004394D01*
X006085Y004368D01*
X006020Y004304D01*
X005614Y004304D01*
X005550Y004368D01*
X005550Y004932D01*
X005568Y004950D01*
X005358Y004950D01*
X005376Y004932D01*
X005376Y004368D01*
X005312Y004304D01*
X004905Y004304D01*
X004903Y004306D01*
X004903Y003994D01*
X004905Y003996D01*
X005312Y003996D01*
X005376Y003932D01*
X005376Y003368D01*
X005312Y003304D01*
X005259Y003304D01*
X005259Y002996D01*
X005312Y002996D01*
X005376Y002932D01*
X005376Y002368D01*
X005312Y002304D01*
X004905Y002304D01*
X004841Y002368D01*
X004841Y002500D01*
X004043Y002500D01*
X004036Y002493D01*
X004049Y002479D01*
X004049Y002210D01*
X005042Y002210D01*
X005153Y002099D01*
X005153Y001961D01*
X005255Y001961D01*
X005320Y001897D01*
X005320Y001373D01*
X005268Y001321D01*
X005302Y001302D01*
X005330Y001274D01*
X005349Y001240D01*
X005360Y001202D01*
X005360Y001014D01*
X005061Y001014D01*
X005061Y000917D01*
X005061Y000599D01*
X005229Y000599D01*
X005268Y000609D01*
X005302Y000629D01*
X005330Y000657D01*
X005349Y000691D01*
X005360Y000729D01*
X005360Y000917D01*
X005061Y000917D01*
X004964Y000917D01*
X004666Y000917D01*
X004666Y000843D01*
X004653Y000856D01*
X004653Y000944D01*
X004700Y000991D01*
X004709Y001014D01*
X004964Y001014D01*
X004964Y000917D01*
X004964Y000599D01*
X004796Y000599D01*
X004758Y000609D01*
X004743Y000618D01*
X004743Y000594D01*
X004700Y000491D01*
X004621Y000413D01*
X004519Y000370D01*
X004407Y000370D01*
X004304Y000413D01*
X004225Y000491D01*
X004183Y000594D01*
X004183Y000706D01*
X004225Y000809D01*
X004273Y000856D01*
X004273Y000944D01*
X004225Y000991D01*
X004183Y001094D01*
X004183Y001206D01*
X004225Y001309D01*
X004273Y001356D01*
X004273Y001444D01*
X004225Y001491D01*
X004183Y001594D01*
X004183Y001706D01*
X004225Y001809D01*
X004247Y001830D01*
X004003Y001830D01*
X003985Y001812D01*
X002909Y001812D01*
X002845Y001876D01*
X002845Y002164D01*
X002858Y002178D01*
X002845Y002191D01*
X002845Y002479D01*
X002858Y002493D01*
X002845Y002506D01*
X002845Y002794D01*
X002858Y002807D01*
X002845Y002821D01*
X002845Y003079D01*
X002835Y003089D01*
X002815Y003124D01*
X002805Y003162D01*
X002805Y003280D01*
X003447Y003280D01*
X003447Y003528D01*
X002935Y003528D01*
X002897Y003518D01*
X002863Y003498D01*
X002840Y003476D01*
X002840Y003591D01*
X002783Y003730D01*
X002676Y003836D01*
X002538Y003893D01*
X002388Y003893D01*
X002249Y003836D01*
X002143Y003730D01*
X002086Y003591D01*
X002086Y003441D01*
X002143Y003302D01*
X002249Y003196D01*
X002388Y003139D01*
X002538Y003139D01*
X002676Y003196D01*
X002783Y003302D01*
X002805Y003357D01*
X002805Y003280D01*
X003447Y003280D01*
X003447Y003280D01*
X003447Y003280D01*
X003447Y003528D01*
X003959Y003528D01*
X003997Y003518D01*
X004031Y003498D01*
X004059Y003470D01*
X004079Y003436D01*
X004089Y003398D01*
X004089Y003280D01*
X003447Y003280D01*
X003447Y003280D01*
X004089Y003280D01*
X004089Y003162D01*
X004087Y003155D01*
X004523Y003155D01*
X004523Y004729D01*
X004634Y004840D01*
X004841Y004840D01*
X004841Y004932D01*
X004859Y004950D01*
X000663Y004950D01*
X000663Y004902D02*
X000720Y004902D01*
X000744Y004925D02*
X000680Y004861D01*
X000680Y003982D01*
X000744Y003918D01*
X001819Y003918D01*
X001884Y003982D01*
X001884Y004861D01*
X001819Y004925D01*
X000744Y004925D01*
X000680Y004803D02*
X000663Y004803D01*
X000663Y004705D02*
X000680Y004705D01*
X000680Y004606D02*
X000663Y004606D01*
X000663Y004508D02*
X000680Y004508D01*
X000680Y004409D02*
X000663Y004409D01*
X000663Y004311D02*
X000680Y004311D01*
X000680Y004212D02*
X000663Y004212D01*
X000663Y004114D02*
X000680Y004114D01*
X000680Y004015D02*
X000663Y004015D01*
X000663Y003917D02*
X004523Y003917D01*
X004523Y004015D02*
X004049Y004015D01*
X004049Y003982D02*
X003985Y003918D01*
X002909Y003918D01*
X002845Y003982D01*
X002845Y004861D01*
X002909Y004925D01*
X003985Y004925D01*
X004049Y004861D01*
X004049Y003982D01*
X004049Y004114D02*
X004523Y004114D01*
X004523Y004212D02*
X004049Y004212D01*
X004049Y004311D02*
X004523Y004311D01*
X004523Y004409D02*
X004049Y004409D01*
X004049Y004508D02*
X004523Y004508D01*
X004523Y004606D02*
X004049Y004606D01*
X004049Y004705D02*
X004523Y004705D01*
X004597Y004803D02*
X004049Y004803D01*
X004009Y004902D02*
X004841Y004902D01*
X005376Y004902D02*
X005550Y004902D01*
X005550Y004803D02*
X005376Y004803D01*
X005376Y004705D02*
X005550Y004705D01*
X005550Y004606D02*
X005376Y004606D01*
X005376Y004508D02*
X005550Y004508D01*
X005550Y004409D02*
X005376Y004409D01*
X005318Y004311D02*
X005607Y004311D01*
X006027Y004311D02*
X006276Y004311D01*
X006276Y004212D02*
X004903Y004212D01*
X004903Y004114D02*
X007453Y004114D01*
X007565Y004015D02*
X004903Y004015D01*
X005376Y003917D02*
X005550Y003917D01*
X005550Y003818D02*
X005376Y003818D01*
X005376Y003720D02*
X005550Y003720D01*
X005550Y003621D02*
X005376Y003621D01*
X005376Y003523D02*
X005550Y003523D01*
X005550Y003424D02*
X005376Y003424D01*
X005333Y003326D02*
X005592Y003326D01*
X005259Y003227D02*
X006360Y003227D01*
X006360Y003129D02*
X005259Y003129D01*
X005259Y003030D02*
X005617Y003030D01*
X005602Y003026D02*
X005568Y003006D01*
X005540Y002978D01*
X005520Y002944D01*
X005510Y002906D01*
X005510Y002679D01*
X005788Y002679D01*
X005788Y002621D01*
X005510Y002621D01*
X005510Y002394D01*
X005520Y002356D01*
X005540Y002322D01*
X005568Y002294D01*
X005602Y002274D01*
X005640Y002264D01*
X005788Y002264D01*
X005788Y002621D01*
X005846Y002621D01*
X005846Y002264D01*
X005994Y002264D01*
X006033Y002274D01*
X006067Y002294D01*
X006095Y002322D01*
X006114Y002356D01*
X006125Y002394D01*
X006125Y002621D01*
X005846Y002621D01*
X005846Y002679D01*
X005788Y002679D01*
X005788Y003036D01*
X005640Y003036D01*
X005602Y003026D01*
X005788Y003030D02*
X005846Y003030D01*
X005846Y003036D02*
X005846Y002679D01*
X006125Y002679D01*
X006125Y002906D01*
X006114Y002944D01*
X006095Y002978D01*
X006067Y003006D01*
X006033Y003026D01*
X005994Y003036D01*
X005846Y003036D01*
X006018Y003030D02*
X006300Y003030D01*
X006202Y002932D02*
X006118Y002932D01*
X005846Y002932D02*
X005788Y002932D01*
X005788Y002833D02*
X005846Y002833D01*
X005846Y002735D02*
X005788Y002735D01*
X006125Y002735D02*
X006199Y002735D01*
X006199Y002833D02*
X006125Y002833D01*
X006171Y002636D02*
X005846Y002636D01*
X005788Y002636D02*
X005376Y002636D01*
X005376Y002538D02*
X005510Y002538D01*
X005510Y002439D02*
X005376Y002439D01*
X005348Y002341D02*
X005529Y002341D01*
X005788Y002341D02*
X005846Y002341D01*
X006106Y002341D02*
X006171Y002341D01*
X006171Y002439D02*
X006125Y002439D01*
X005846Y002439D02*
X005788Y002439D01*
X005788Y002538D02*
X005846Y002538D01*
X006125Y002538D02*
X006171Y002538D01*
X006607Y002538D02*
X006919Y002538D01*
X006919Y002636D02*
X006607Y002636D01*
X006607Y002439D02*
X006919Y002439D01*
X006919Y002341D02*
X006607Y002341D01*
X006607Y002242D02*
X006919Y002242D01*
X006919Y002144D02*
X006607Y002144D01*
X006572Y002045D02*
X006954Y002045D01*
X007320Y002045D02*
X007506Y002045D01*
X007506Y001947D02*
X005270Y001947D01*
X005320Y001848D02*
X007531Y001848D01*
X007570Y001792D02*
X007506Y001727D01*
X007506Y001203D01*
X007570Y001139D01*
X007623Y001139D01*
X007623Y000940D01*
X006969Y000940D01*
X006953Y000956D01*
X006953Y000972D01*
X006971Y000962D01*
X007009Y000952D01*
X007133Y000952D01*
X007133Y001334D01*
X007141Y001334D01*
X007141Y000952D01*
X007265Y000952D01*
X007303Y000962D01*
X007337Y000982D01*
X007365Y001010D01*
X007385Y001044D01*
X007395Y001082D01*
X007395Y001334D01*
X007141Y001334D01*
X007141Y001342D01*
X007395Y001342D01*
X007395Y001594D01*
X007385Y001632D01*
X007365Y001667D01*
X007337Y001694D01*
X007303Y001714D01*
X007265Y001724D01*
X007141Y001724D01*
X007141Y001342D01*
X007133Y001342D01*
X007133Y001724D01*
X007009Y001724D01*
X006971Y001714D01*
X006936Y001694D01*
X006922Y001680D01*
X006917Y001684D01*
X006609Y001684D01*
X006604Y001680D01*
X006589Y001694D01*
X006555Y001714D01*
X006517Y001724D01*
X006393Y001724D01*
X006393Y001342D01*
X006385Y001342D01*
X006385Y001334D01*
X006393Y001334D01*
X006393Y000952D01*
X006517Y000952D01*
X006555Y000962D01*
X006573Y000972D01*
X006573Y000956D01*
X006525Y000909D01*
X006483Y000806D01*
X006483Y000694D01*
X006525Y000591D01*
X006604Y000513D01*
X006707Y000470D01*
X006819Y000470D01*
X006921Y000513D01*
X006969Y000560D01*
X007892Y000560D01*
X008003Y000671D01*
X008003Y001139D01*
X008055Y001139D01*
X008120Y001203D01*
X008120Y001727D01*
X008055Y001792D01*
X007570Y001792D01*
X007528Y001750D02*
X005320Y001750D01*
X005320Y001651D02*
X006152Y001651D01*
X006161Y001667D02*
X006141Y001632D01*
X006131Y001594D01*
X006131Y001342D01*
X006385Y001342D01*
X006385Y001724D01*
X006261Y001724D01*
X006223Y001714D01*
X006188Y001694D01*
X006161Y001667D01*
X006385Y001651D02*
X006393Y001651D01*
X006385Y001553D02*
X006393Y001553D01*
X006131Y001553D02*
X005320Y001553D01*
X005320Y001454D02*
X006131Y001454D01*
X006385Y001454D02*
X006393Y001454D01*
X006385Y001356D02*
X006393Y001356D01*
X006385Y001334D02*
X006131Y001334D01*
X006131Y001082D01*
X006141Y001044D01*
X006161Y001010D01*
X006188Y000982D01*
X006223Y000962D01*
X006261Y000952D01*
X006385Y000952D01*
X006385Y001334D01*
X006385Y001257D02*
X006393Y001257D01*
X006131Y001257D02*
X005340Y001257D01*
X005360Y001159D02*
X006131Y001159D01*
X006385Y001159D02*
X006393Y001159D01*
X006385Y001060D02*
X006393Y001060D01*
X006137Y001060D02*
X005360Y001060D01*
X005061Y000962D02*
X006225Y000962D01*
X006385Y000962D02*
X006393Y000962D01*
X006507Y000863D02*
X005360Y000863D01*
X005360Y000765D02*
X006483Y000765D01*
X006495Y000666D02*
X005335Y000666D01*
X005061Y000666D02*
X004964Y000666D01*
X004964Y000765D02*
X005061Y000765D01*
X005061Y000863D02*
X004964Y000863D01*
X004964Y000962D02*
X004670Y000962D01*
X004666Y000863D02*
X004653Y000863D01*
X004273Y000863D02*
X004049Y000863D01*
X004049Y000962D02*
X004255Y000962D01*
X004197Y001060D02*
X004049Y001060D01*
X004049Y001159D02*
X004183Y001159D01*
X004204Y001257D02*
X004049Y001257D01*
X004049Y001318D02*
X003985Y001382D01*
X002909Y001382D01*
X002845Y001318D01*
X002845Y000439D01*
X002909Y000375D01*
X003985Y000375D01*
X004049Y000439D01*
X004049Y001318D01*
X004011Y001356D02*
X004272Y001356D01*
X004263Y001454D02*
X002652Y001454D01*
X002676Y001464D02*
X002783Y001570D01*
X002840Y001709D01*
X002840Y001859D01*
X002783Y001998D01*
X002676Y002104D01*
X002538Y002161D01*
X002388Y002161D01*
X002249Y002104D01*
X002143Y001998D01*
X002086Y001859D01*
X002086Y001709D01*
X002143Y001570D01*
X002249Y001464D01*
X002388Y001407D01*
X002538Y001407D01*
X002676Y001464D01*
X002765Y001553D02*
X004200Y001553D01*
X004183Y001651D02*
X002816Y001651D01*
X002840Y001750D02*
X004201Y001750D01*
X005153Y002045D02*
X006206Y002045D01*
X006171Y002144D02*
X005108Y002144D01*
X004869Y002341D02*
X004049Y002341D01*
X004049Y002439D02*
X004841Y002439D01*
X004049Y002242D02*
X006171Y002242D01*
X007355Y002242D02*
X007437Y002242D01*
X007506Y002144D02*
X007355Y002144D01*
X008120Y002341D02*
X008593Y002341D01*
X008640Y002242D02*
X008693Y002242D01*
X008738Y002144D02*
X009262Y002144D01*
X009247Y002045D02*
X009377Y002045D01*
X009345Y001947D02*
X009473Y001947D01*
X009473Y001848D02*
X009400Y001848D01*
X009441Y001750D02*
X009473Y001750D01*
X009473Y001651D02*
X009443Y001651D01*
X009442Y001553D02*
X009473Y001553D01*
X009473Y001454D02*
X009401Y001454D01*
X009347Y001356D02*
X009473Y001356D01*
X009537Y001257D02*
X009249Y001257D01*
X008677Y001257D02*
X008120Y001257D01*
X008120Y001356D02*
X008578Y001356D01*
X008524Y001454D02*
X008120Y001454D01*
X008120Y001553D02*
X008484Y001553D01*
X008483Y001651D02*
X008120Y001651D01*
X008098Y001750D02*
X008485Y001750D01*
X008496Y001848D02*
X008095Y001848D01*
X007506Y001651D02*
X007374Y001651D01*
X007395Y001553D02*
X007506Y001553D01*
X007141Y001553D02*
X007133Y001553D01*
X007133Y001651D02*
X007141Y001651D01*
X007133Y001454D02*
X007141Y001454D01*
X007395Y001454D02*
X007506Y001454D01*
X007506Y001356D02*
X007395Y001356D01*
X007141Y001356D02*
X007133Y001356D01*
X007133Y001257D02*
X007141Y001257D01*
X007395Y001257D02*
X007506Y001257D01*
X007551Y001159D02*
X007395Y001159D01*
X007141Y001159D02*
X007133Y001159D01*
X007133Y001060D02*
X007141Y001060D01*
X007389Y001060D02*
X007623Y001060D01*
X007623Y000962D02*
X007300Y000962D01*
X007141Y000962D02*
X007133Y000962D01*
X006973Y000962D02*
X006953Y000962D01*
X006573Y000962D02*
X006552Y000962D01*
X006549Y000568D02*
X004732Y000568D01*
X004678Y000469D02*
X007999Y000469D01*
X007901Y000371D02*
X004520Y000371D01*
X004406Y000371D02*
X000663Y000371D01*
X000680Y000439D02*
X000744Y000375D01*
X001819Y000375D01*
X001884Y000439D01*
X001884Y001318D01*
X001819Y001382D01*
X000744Y001382D01*
X000680Y001318D01*
X000680Y000439D01*
X000680Y000469D02*
X000663Y000469D01*
X000663Y000568D02*
X000680Y000568D01*
X000680Y000666D02*
X000663Y000666D01*
X000663Y000765D02*
X000680Y000765D01*
X000680Y000863D02*
X000663Y000863D01*
X000663Y000962D02*
X000680Y000962D01*
X000680Y001060D02*
X000663Y001060D01*
X000663Y001159D02*
X000680Y001159D01*
X000680Y001257D02*
X000663Y001257D01*
X000663Y001356D02*
X000718Y001356D01*
X000663Y001454D02*
X002274Y001454D01*
X002161Y001553D02*
X000663Y001553D01*
X000663Y001651D02*
X002110Y001651D01*
X002086Y001750D02*
X000663Y001750D01*
X000663Y001848D02*
X002086Y001848D01*
X002122Y001947D02*
X000663Y001947D01*
X000663Y002045D02*
X002191Y002045D01*
X002346Y002144D02*
X000663Y002144D01*
X000663Y002242D02*
X002845Y002242D01*
X002845Y002144D02*
X002580Y002144D01*
X002735Y002045D02*
X002845Y002045D01*
X002845Y001947D02*
X002804Y001947D01*
X002840Y001848D02*
X002873Y001848D01*
X002883Y001356D02*
X001846Y001356D01*
X001884Y001257D02*
X002845Y001257D01*
X002845Y001159D02*
X001884Y001159D01*
X001884Y001060D02*
X002845Y001060D01*
X002845Y000962D02*
X001884Y000962D01*
X001884Y000863D02*
X002845Y000863D01*
X002845Y000765D02*
X001884Y000765D01*
X001884Y000666D02*
X002845Y000666D01*
X002845Y000568D02*
X001884Y000568D01*
X001884Y000469D02*
X002845Y000469D01*
X004049Y000469D02*
X004248Y000469D01*
X004194Y000568D02*
X004049Y000568D01*
X004049Y000666D02*
X004183Y000666D01*
X004207Y000765D02*
X004049Y000765D01*
X005303Y001356D02*
X006131Y001356D01*
X008003Y001060D02*
X009959Y001060D01*
X009959Y000962D02*
X008003Y000962D01*
X008003Y000863D02*
X009959Y000863D01*
X009997Y000765D02*
X009631Y000765D01*
X009730Y000666D02*
X010437Y000666D01*
X010433Y000568D02*
X009828Y000568D01*
X009927Y000469D02*
X010464Y000469D01*
X010546Y000371D02*
X010025Y000371D01*
X010417Y000765D02*
X010481Y000765D01*
X010471Y000863D02*
X010455Y000863D01*
X010455Y000962D02*
X010471Y000962D01*
X010471Y001060D02*
X010455Y001060D01*
X010455Y001159D02*
X010471Y001159D01*
X009959Y001159D02*
X008075Y001159D01*
X008003Y000765D02*
X008295Y000765D01*
X008196Y000666D02*
X007998Y000666D01*
X007899Y000568D02*
X008098Y000568D01*
X012711Y001590D02*
X012711Y001898D01*
X012653Y001955D01*
X012653Y002710D01*
X012762Y002710D01*
X012802Y002670D01*
X013763Y002670D01*
X013828Y002734D01*
X013828Y003066D01*
X013763Y003130D01*
X012802Y003130D01*
X012762Y003090D01*
X012384Y003090D01*
X012273Y002979D01*
X012273Y001955D01*
X012253Y001935D01*
X012253Y003210D01*
X012762Y003210D01*
X012802Y003170D01*
X013763Y003170D01*
X013828Y003234D01*
X013828Y003566D01*
X013763Y003630D01*
X012802Y003630D01*
X012762Y003590D01*
X011984Y003590D01*
X011953Y003559D01*
X011953Y003979D01*
X011842Y004090D01*
X011153Y004090D01*
X011113Y004130D01*
X010152Y004130D01*
X010088Y004066D01*
X010088Y003734D01*
X010152Y003670D01*
X011113Y003670D01*
X011153Y003710D01*
X011573Y003710D01*
X011573Y002279D01*
X011534Y002240D01*
X011270Y002240D01*
X011199Y002245D01*
X011193Y002240D01*
X011184Y002240D01*
X011134Y002190D01*
X011128Y002185D01*
X011178Y002234D01*
X011178Y002566D01*
X011113Y002630D01*
X010446Y002630D01*
X010240Y002670D01*
X011113Y002670D01*
X011178Y002734D01*
X011178Y003066D01*
X011113Y003130D01*
X010152Y003130D01*
X010136Y003114D01*
X009854Y003271D01*
X009825Y003300D01*
X009802Y003300D01*
X009781Y003311D01*
X009742Y003300D01*
X009348Y003300D01*
X009359Y003311D01*
X009408Y003377D01*
X009445Y003450D01*
X009470Y003528D01*
X009481Y003600D01*
X009013Y003600D01*
X009013Y003700D01*
X009481Y003700D01*
X009470Y003772D01*
X009445Y003850D01*
X009425Y003889D01*
X009494Y003808D01*
X009813Y003353D01*
X009813Y003338D01*
X009847Y003303D01*
X009876Y003263D01*
X009890Y003260D01*
X009901Y003250D01*
X009950Y003250D01*
X009998Y003241D01*
X010010Y003250D01*
X010088Y003250D01*
X010088Y003234D01*
X010152Y003170D01*
X011113Y003170D01*
X011178Y003234D01*
X011178Y003566D01*
X011113Y003630D01*
X010152Y003630D01*
X010088Y003566D01*
X010088Y003550D01*
X010041Y003550D01*
X009767Y003942D01*
X009767Y003950D01*
X009732Y003992D01*
X009700Y004037D01*
X009692Y004038D01*
X009463Y004305D01*
X009463Y004312D01*
X009423Y004352D01*
X009386Y004395D01*
X009380Y004395D01*
X009375Y004400D01*
X009319Y004400D01*
X009262Y004404D01*
X009257Y004400D01*
X008512Y004400D01*
X008444Y004450D01*
X009546Y004450D01*
X010046Y004950D01*
X013880Y004950D01*
X014380Y004450D01*
X015546Y004450D01*
X015663Y004567D01*
X016046Y004950D01*
X018580Y004950D01*
X019213Y004317D01*
X019213Y004010D01*
X017397Y004010D01*
X017303Y003916D01*
X017303Y003810D01*
X016443Y003810D01*
X016443Y003849D01*
X016162Y004130D01*
X015764Y004130D01*
X015483Y003849D01*
X015483Y003451D01*
X015764Y003170D01*
X016162Y003170D01*
X016443Y003451D01*
X016443Y003490D01*
X017303Y003490D01*
X017303Y003284D01*
X017397Y003190D01*
X019213Y003190D01*
X019213Y003010D01*
X017397Y003010D01*
X017303Y002916D01*
X017303Y002810D01*
X016443Y002810D01*
X016443Y002849D01*
X016162Y003130D01*
X015764Y003130D01*
X015483Y002849D01*
X015483Y002451D01*
X015764Y002170D01*
X016162Y002170D01*
X016443Y002451D01*
X016443Y002490D01*
X017303Y002490D01*
X017303Y002284D01*
X017397Y002190D01*
X019213Y002190D01*
X019213Y002010D01*
X017397Y002010D01*
X017303Y001916D01*
X017303Y001810D01*
X016443Y001810D01*
X016443Y001849D01*
X016162Y002130D01*
X015764Y002130D01*
X015483Y001849D01*
X015483Y001451D01*
X015530Y001404D01*
X015247Y001100D01*
X013967Y001100D01*
X013967Y001169D01*
X013926Y001210D01*
X014724Y001210D01*
X014764Y001170D01*
X015162Y001170D01*
X015443Y001451D01*
X015443Y001849D01*
X015162Y002130D01*
X014764Y002130D01*
X014483Y001849D01*
X014483Y001590D01*
X013711Y001590D01*
X013711Y001898D01*
X013653Y001955D01*
X013653Y002170D01*
X013763Y002170D01*
X013828Y002234D01*
X013828Y002566D01*
X013763Y002630D01*
X012802Y002630D01*
X012738Y002566D01*
X012738Y002234D01*
X012802Y002170D01*
X013273Y002170D01*
X013273Y001955D01*
X013215Y001898D01*
X013215Y001590D01*
X012711Y001590D01*
X012711Y001651D02*
X013215Y001651D01*
X013215Y001750D02*
X012711Y001750D01*
X012711Y001848D02*
X013215Y001848D01*
X013264Y001947D02*
X012662Y001947D01*
X012653Y002045D02*
X013273Y002045D01*
X013273Y002144D02*
X012653Y002144D01*
X012653Y002242D02*
X012738Y002242D01*
X012738Y002341D02*
X012653Y002341D01*
X012653Y002439D02*
X012738Y002439D01*
X012738Y002538D02*
X012653Y002538D01*
X012653Y002636D02*
X014483Y002636D01*
X014483Y002538D02*
X013828Y002538D01*
X013828Y002439D02*
X014495Y002439D01*
X014483Y002451D02*
X014764Y002170D01*
X015162Y002170D01*
X015443Y002451D01*
X015443Y002849D01*
X015162Y003130D01*
X014764Y003130D01*
X014483Y002849D01*
X014483Y002451D01*
X014593Y002341D02*
X013828Y002341D01*
X013828Y002242D02*
X014692Y002242D01*
X014679Y002045D02*
X013653Y002045D01*
X013653Y002144D02*
X019213Y002144D01*
X019213Y002045D02*
X016247Y002045D01*
X016345Y001947D02*
X017333Y001947D01*
X017303Y001848D02*
X016443Y001848D01*
X015963Y001650D02*
X017963Y001650D01*
X017463Y001651D02*
X019413Y001651D01*
X019413Y001553D02*
X017463Y001553D01*
X017463Y001454D02*
X019413Y001454D01*
X019413Y001356D02*
X017463Y001356D01*
X017463Y001350D02*
X019413Y001350D01*
X019413Y001850D01*
X017463Y001850D01*
X017463Y001350D01*
X017463Y001750D02*
X019413Y001750D01*
X019413Y001848D02*
X017463Y001848D01*
X017345Y002242D02*
X016234Y002242D01*
X016332Y002341D02*
X017303Y002341D01*
X017463Y002350D02*
X019413Y002350D01*
X019413Y002850D01*
X017463Y002850D01*
X017463Y002350D01*
X017463Y002439D02*
X019413Y002439D01*
X019413Y002538D02*
X017463Y002538D01*
X017463Y002636D02*
X019413Y002636D01*
X019413Y002735D02*
X017463Y002735D01*
X017463Y002833D02*
X019413Y002833D01*
X019213Y003030D02*
X016262Y003030D01*
X016360Y002932D02*
X017318Y002932D01*
X017303Y002833D02*
X016443Y002833D01*
X015963Y002650D02*
X017963Y002650D01*
X017303Y002439D02*
X016431Y002439D01*
X015692Y002242D02*
X015234Y002242D01*
X015332Y002341D02*
X015593Y002341D01*
X015495Y002439D02*
X015431Y002439D01*
X015443Y002538D02*
X015483Y002538D01*
X015483Y002636D02*
X015443Y002636D01*
X015443Y002735D02*
X015483Y002735D01*
X015483Y002833D02*
X015443Y002833D01*
X015360Y002932D02*
X015566Y002932D01*
X015664Y003030D02*
X015262Y003030D01*
X015163Y003129D02*
X015763Y003129D01*
X015707Y003227D02*
X015219Y003227D01*
X015162Y003170D02*
X015443Y003451D01*
X015443Y003849D01*
X015162Y004130D01*
X014764Y004130D01*
X014721Y004087D01*
X013993Y004669D01*
X013993Y004706D01*
X013950Y004809D01*
X013871Y004887D01*
X013769Y004930D01*
X013657Y004930D01*
X013554Y004887D01*
X013507Y004840D01*
X013419Y004840D01*
X013371Y004887D01*
X013269Y004930D01*
X013157Y004930D01*
X013054Y004887D01*
X012975Y004809D01*
X012933Y004706D01*
X012933Y004594D01*
X012975Y004491D01*
X013054Y004413D01*
X013157Y004370D01*
X013269Y004370D01*
X013371Y004413D01*
X013419Y004460D01*
X013507Y004460D01*
X013554Y004413D01*
X013657Y004370D01*
X013759Y004370D01*
X014483Y003791D01*
X014483Y003451D01*
X014764Y003170D01*
X015162Y003170D01*
X014763Y003129D02*
X013765Y003129D01*
X013820Y003227D02*
X014707Y003227D01*
X014608Y003326D02*
X013828Y003326D01*
X013828Y003424D02*
X014510Y003424D01*
X014483Y003523D02*
X013828Y003523D01*
X013772Y003621D02*
X014483Y003621D01*
X014483Y003720D02*
X013856Y003720D01*
X013858Y003722D02*
X013868Y003760D01*
X013868Y003890D01*
X013293Y003890D01*
X013293Y003910D01*
X013868Y003910D01*
X013868Y004040D01*
X013858Y004078D01*
X013838Y004112D01*
X013810Y004140D01*
X013776Y004160D01*
X013738Y004170D01*
X013293Y004170D01*
X013293Y003910D01*
X013273Y003910D01*
X013273Y004170D01*
X012828Y004170D01*
X012790Y004160D01*
X012756Y004140D01*
X012728Y004112D01*
X012708Y004078D01*
X012698Y004040D01*
X012698Y003910D01*
X013273Y003910D01*
X013273Y003890D01*
X013293Y003890D01*
X013293Y003630D01*
X013738Y003630D01*
X013776Y003640D01*
X013810Y003660D01*
X013838Y003688D01*
X013858Y003722D01*
X013868Y003818D02*
X014449Y003818D01*
X014326Y003917D02*
X013868Y003917D01*
X013868Y004015D02*
X014202Y004015D01*
X014079Y004114D02*
X013836Y004114D01*
X013956Y004212D02*
X012685Y004212D01*
X012684Y004211D02*
X012704Y004245D01*
X012714Y004283D01*
X012714Y004452D01*
X012396Y004452D01*
X012396Y004548D01*
X012714Y004548D01*
X012714Y004717D01*
X012704Y004755D01*
X012684Y004789D01*
X012656Y004817D01*
X012622Y004837D01*
X012584Y004847D01*
X012396Y004847D01*
X012396Y004548D01*
X012299Y004548D01*
X012299Y004847D01*
X012111Y004847D01*
X012073Y004837D01*
X012039Y004817D01*
X012011Y004789D01*
X011992Y004756D01*
X011940Y004807D01*
X011416Y004807D01*
X011352Y004742D01*
X011352Y004740D01*
X011169Y004740D01*
X011121Y004787D01*
X011019Y004830D01*
X010907Y004830D01*
X010804Y004787D01*
X010725Y004709D01*
X010683Y004606D01*
X009702Y004606D01*
X009800Y004705D02*
X010724Y004705D01*
X010683Y004606D02*
X010683Y004494D01*
X010725Y004391D01*
X010804Y004313D01*
X010907Y004270D01*
X011019Y004270D01*
X011121Y004313D01*
X011169Y004360D01*
X011352Y004360D01*
X011352Y004258D01*
X011416Y004193D01*
X011940Y004193D01*
X011992Y004244D01*
X012011Y004211D01*
X012039Y004183D01*
X012073Y004163D01*
X012111Y004153D01*
X012299Y004153D01*
X012299Y004452D01*
X012396Y004452D01*
X012396Y004153D01*
X012584Y004153D01*
X012622Y004163D01*
X012656Y004183D01*
X012684Y004211D01*
X012714Y004311D02*
X013833Y004311D01*
X013563Y004409D02*
X013363Y004409D01*
X013063Y004409D02*
X012714Y004409D01*
X012969Y004508D02*
X012396Y004508D01*
X012396Y004606D02*
X012299Y004606D01*
X012299Y004705D02*
X012396Y004705D01*
X012396Y004803D02*
X012299Y004803D01*
X012025Y004803D02*
X011944Y004803D01*
X011412Y004803D02*
X011084Y004803D01*
X010842Y004803D02*
X009899Y004803D01*
X009997Y004902D02*
X013088Y004902D01*
X013337Y004902D02*
X013588Y004902D01*
X013837Y004902D02*
X013928Y004902D01*
X013953Y004803D02*
X014027Y004803D01*
X013993Y004705D02*
X014125Y004705D01*
X014072Y004606D02*
X014224Y004606D01*
X014195Y004508D02*
X014322Y004508D01*
X014318Y004409D02*
X019121Y004409D01*
X019213Y004311D02*
X014441Y004311D01*
X014564Y004212D02*
X019213Y004212D01*
X019213Y004114D02*
X016178Y004114D01*
X016277Y004015D02*
X019213Y004015D01*
X019413Y003850D02*
X019413Y003350D01*
X017463Y003350D01*
X017463Y003850D01*
X019413Y003850D01*
X019413Y003818D02*
X017463Y003818D01*
X017303Y003818D02*
X016443Y003818D01*
X016375Y003917D02*
X017303Y003917D01*
X017463Y003720D02*
X019413Y003720D01*
X019413Y003621D02*
X017463Y003621D01*
X017463Y003523D02*
X019413Y003523D01*
X019413Y003424D02*
X017463Y003424D01*
X017303Y003424D02*
X016416Y003424D01*
X016317Y003326D02*
X017303Y003326D01*
X017360Y003227D02*
X016219Y003227D01*
X016163Y003129D02*
X019213Y003129D01*
X017963Y003650D02*
X015963Y003650D01*
X015483Y003621D02*
X015443Y003621D01*
X015443Y003523D02*
X015483Y003523D01*
X015510Y003424D02*
X015416Y003424D01*
X015317Y003326D02*
X015608Y003326D01*
X014664Y003030D02*
X013828Y003030D01*
X013828Y002932D02*
X014566Y002932D01*
X014483Y002833D02*
X013828Y002833D01*
X013828Y002735D02*
X014483Y002735D01*
X012801Y003129D02*
X012253Y003129D01*
X012253Y003030D02*
X012324Y003030D01*
X012273Y002932D02*
X012253Y002932D01*
X012253Y002833D02*
X012273Y002833D01*
X012273Y002735D02*
X012253Y002735D01*
X012253Y002636D02*
X012273Y002636D01*
X012273Y002538D02*
X012253Y002538D01*
X012253Y002439D02*
X012273Y002439D01*
X012273Y002341D02*
X012253Y002341D01*
X012253Y002242D02*
X012273Y002242D01*
X012273Y002144D02*
X012253Y002144D01*
X012253Y002045D02*
X012273Y002045D01*
X012264Y001947D02*
X012253Y001947D01*
X011536Y002242D02*
X011244Y002242D01*
X011195Y002242D02*
X011178Y002242D01*
X011178Y002341D02*
X011573Y002341D01*
X011573Y002439D02*
X011178Y002439D01*
X011178Y002538D02*
X011573Y002538D01*
X011573Y002636D02*
X010415Y002636D01*
X011178Y002735D02*
X011573Y002735D01*
X011573Y002833D02*
X011178Y002833D01*
X011178Y002932D02*
X011573Y002932D01*
X011573Y003030D02*
X011178Y003030D01*
X011115Y003129D02*
X011573Y003129D01*
X011573Y003227D02*
X011170Y003227D01*
X011178Y003326D02*
X011573Y003326D01*
X011573Y003424D02*
X011178Y003424D01*
X011178Y003523D02*
X011573Y003523D01*
X011573Y003621D02*
X011122Y003621D01*
X011953Y003621D02*
X012793Y003621D01*
X012790Y003640D02*
X012828Y003630D01*
X013273Y003630D01*
X013273Y003890D01*
X012698Y003890D01*
X012698Y003760D01*
X012708Y003722D01*
X012728Y003688D01*
X012756Y003660D01*
X012790Y003640D01*
X012710Y003720D02*
X011953Y003720D01*
X011953Y003818D02*
X012698Y003818D01*
X012698Y003917D02*
X011953Y003917D01*
X011917Y004015D02*
X012698Y004015D01*
X012729Y004114D02*
X011130Y004114D01*
X011397Y004212D02*
X009543Y004212D01*
X009463Y004311D02*
X010809Y004311D01*
X010718Y004409D02*
X008500Y004409D01*
X008127Y004311D02*
X007804Y004311D01*
X007693Y004409D02*
X007992Y004409D01*
X007858Y004508D02*
X007650Y004508D01*
X007650Y004606D02*
X007724Y004606D01*
X007182Y004508D02*
X007017Y004508D01*
X007182Y004409D02*
X006837Y004409D01*
X006744Y004311D02*
X007182Y004311D01*
X007182Y004212D02*
X006744Y004212D01*
X006687Y003917D02*
X007239Y003917D01*
X007182Y003818D02*
X006744Y003818D01*
X006744Y003720D02*
X007182Y003720D01*
X007182Y003621D02*
X006744Y003621D01*
X006744Y003523D02*
X007182Y003523D01*
X007199Y003424D02*
X006727Y003424D01*
X006660Y003326D02*
X008556Y003326D01*
X008494Y003424D02*
X007983Y003424D01*
X008063Y003523D02*
X008457Y003523D01*
X008093Y003621D02*
X008913Y003621D01*
X009013Y003621D02*
X009625Y003621D01*
X009694Y003523D02*
X009468Y003523D01*
X009431Y003424D02*
X009763Y003424D01*
X009825Y003326D02*
X009370Y003326D01*
X009933Y003227D02*
X010095Y003227D01*
X010110Y003129D02*
X010151Y003129D01*
X008566Y002932D02*
X007650Y002932D01*
X007653Y002833D02*
X008519Y002833D01*
X008483Y002735D02*
X007653Y002735D01*
X007653Y002636D02*
X008483Y002636D01*
X008490Y002538D02*
X007679Y002538D01*
X008077Y002439D02*
X008531Y002439D01*
X005510Y002735D02*
X005376Y002735D01*
X005376Y002833D02*
X005510Y002833D01*
X005517Y002932D02*
X005376Y002932D01*
X004523Y003227D02*
X004089Y003227D01*
X004089Y003326D02*
X004523Y003326D01*
X004523Y003424D02*
X004082Y003424D01*
X003981Y003523D02*
X004523Y003523D01*
X004523Y003621D02*
X002828Y003621D01*
X002840Y003523D02*
X002913Y003523D01*
X002805Y003326D02*
X002792Y003326D01*
X002805Y003227D02*
X002707Y003227D01*
X002814Y003129D02*
X000663Y003129D01*
X000663Y003227D02*
X002219Y003227D01*
X002134Y003326D02*
X000663Y003326D01*
X000663Y003424D02*
X002093Y003424D01*
X002086Y003523D02*
X000663Y003523D01*
X000663Y003621D02*
X002098Y003621D01*
X002139Y003720D02*
X000663Y003720D01*
X000663Y003818D02*
X002231Y003818D01*
X002694Y003818D02*
X004523Y003818D01*
X004523Y003720D02*
X002787Y003720D01*
X003447Y003523D02*
X003447Y003523D01*
X003447Y003424D02*
X003447Y003424D01*
X003447Y003326D02*
X003447Y003326D01*
X002845Y003030D02*
X000663Y003030D01*
X000663Y002932D02*
X002845Y002932D01*
X002845Y002833D02*
X000663Y002833D01*
X000663Y002735D02*
X002845Y002735D01*
X002845Y002636D02*
X000663Y002636D01*
X000663Y002538D02*
X002845Y002538D01*
X002845Y002439D02*
X000663Y002439D01*
X000663Y002341D02*
X002845Y002341D01*
X006042Y003326D02*
X006360Y003326D01*
X006293Y003424D02*
X006085Y003424D01*
X006085Y003818D02*
X006276Y003818D01*
X006334Y003917D02*
X006085Y003917D01*
X007592Y003917D02*
X007625Y003917D01*
X008005Y003917D02*
X008515Y003917D01*
X008471Y003818D02*
X008041Y003818D01*
X008087Y003720D02*
X008447Y003720D01*
X007643Y003424D02*
X007633Y003424D01*
X009455Y003818D02*
X009486Y003818D01*
X009478Y003720D02*
X009556Y003720D01*
X009853Y003818D02*
X010088Y003818D01*
X010088Y003917D02*
X009784Y003917D01*
X009715Y004015D02*
X010088Y004015D01*
X010136Y004114D02*
X009627Y004114D01*
X008592Y004015D02*
X008008Y004015D01*
X008006Y004114D02*
X008387Y004114D01*
X008261Y004212D02*
X007920Y004212D01*
X009603Y004508D02*
X010683Y004508D01*
X011116Y004311D02*
X011352Y004311D01*
X011959Y004212D02*
X012010Y004212D01*
X012299Y004212D02*
X012396Y004212D01*
X012396Y004311D02*
X012299Y004311D01*
X012299Y004409D02*
X012396Y004409D01*
X012714Y004606D02*
X012933Y004606D01*
X012933Y004705D02*
X012714Y004705D01*
X012670Y004803D02*
X012973Y004803D01*
X013273Y004114D02*
X013293Y004114D01*
X013293Y004015D02*
X013273Y004015D01*
X013273Y003917D02*
X013293Y003917D01*
X013293Y003818D02*
X013273Y003818D01*
X013273Y003720D02*
X013293Y003720D01*
X014688Y004114D02*
X014748Y004114D01*
X015178Y004114D02*
X015748Y004114D01*
X015649Y004015D02*
X015277Y004015D01*
X015375Y003917D02*
X015551Y003917D01*
X015483Y003818D02*
X015443Y003818D01*
X015443Y003720D02*
X015483Y003720D01*
X015603Y004508D02*
X019022Y004508D01*
X018924Y004606D02*
X015702Y004606D01*
X015800Y004705D02*
X018825Y004705D01*
X018727Y004803D02*
X015899Y004803D01*
X015997Y004902D02*
X018628Y004902D01*
X010143Y003621D02*
X009991Y003621D01*
X009922Y003720D02*
X010103Y003720D01*
X015247Y002045D02*
X015679Y002045D01*
X015581Y001947D02*
X015345Y001947D01*
X015443Y001848D02*
X015483Y001848D01*
X015483Y001750D02*
X015443Y001750D01*
X015443Y001651D02*
X015483Y001651D01*
X015483Y001553D02*
X015443Y001553D01*
X015443Y001454D02*
X015483Y001454D01*
X015485Y001356D02*
X015347Y001356D01*
X015393Y001257D02*
X015249Y001257D01*
X015302Y001159D02*
X013967Y001159D01*
X013711Y001651D02*
X014483Y001651D01*
X014483Y001750D02*
X013711Y001750D01*
X013711Y001848D02*
X014483Y001848D01*
X014581Y001947D02*
X013662Y001947D01*
X002845Y004015D02*
X001884Y004015D01*
X001884Y004114D02*
X002845Y004114D01*
X002845Y004212D02*
X001884Y004212D01*
X001884Y004311D02*
X002845Y004311D01*
X002845Y004409D02*
X001884Y004409D01*
X001884Y004508D02*
X002845Y004508D01*
X002845Y004606D02*
X001884Y004606D01*
X001884Y004705D02*
X002845Y004705D01*
X002845Y004803D02*
X001884Y004803D01*
X001843Y004902D02*
X002886Y004902D01*
D23*
X004263Y004750D03*
X004263Y004200D03*
X004263Y003650D03*
X007813Y003650D03*
X009763Y004350D03*
X010213Y004650D03*
X010963Y004550D03*
X013213Y004650D03*
X013713Y004650D03*
X009863Y002550D03*
X004463Y001650D03*
X004463Y001150D03*
X004463Y000650D03*
X006763Y000750D03*
X010713Y000600D03*
X011713Y000600D03*
X012713Y000600D03*
D24*
X013713Y000950D02*
X015313Y000950D01*
X015963Y001650D01*
X013719Y000986D02*
X013713Y000950D01*
X010633Y002900D02*
X010213Y002900D01*
X009763Y003150D01*
X006510Y003150D01*
X006510Y003650D01*
X005817Y003650D01*
X005109Y003650D02*
X005109Y002650D01*
X003447Y002650D01*
X007713Y004800D02*
X008463Y004250D01*
X009313Y004250D01*
X009613Y003900D01*
X009963Y003400D01*
X010633Y003400D01*
X006963Y004650D02*
X006510Y004400D01*
X005817Y004650D01*
X006963Y004650D02*
X007213Y004800D01*
X007713Y004800D01*
M02*
