G75*
G70*
%OFA0B0*%
%FSLAX24Y24*%
%IPPOS*%
%LPD*%
%AMOC8*
5,1,8,0,0,1.08239X$1,22.5*
%
%ADD10C,0.0740*%
%ADD11OC8,0.0740*%
%ADD12C,0.0340*%
%ADD13C,0.0160*%
%ADD14C,0.0100*%
%ADD15C,0.0080*%
D10*
X008963Y001650D03*
X008963Y002650D03*
X008963Y003650D03*
D11*
X014963Y003650D03*
X015963Y003650D03*
X015963Y002650D03*
X014963Y002650D03*
X014963Y001650D03*
X015963Y001650D03*
D12*
X012713Y000600D03*
X011713Y000600D03*
X010713Y000600D03*
X006763Y000750D03*
X004463Y000650D03*
X004463Y001150D03*
X004463Y001650D03*
X009863Y002550D03*
X007813Y003650D03*
X009763Y004350D03*
X010213Y004650D03*
X010963Y004550D03*
X013213Y004650D03*
X013713Y004650D03*
X004263Y004750D03*
X004263Y004200D03*
X004263Y003650D03*
D13*
X004963Y004350D01*
X004263Y004750D01*
X004263Y004200D01*
X004263Y003650D01*
X004963Y004350D02*
X008513Y004350D01*
X009763Y004350D01*
X010213Y004650D01*
X010713Y004550D02*
X010963Y004550D01*
X008963Y003650D02*
X008513Y004350D01*
X012713Y000600D02*
X012813Y000600D01*
D14*
X000663Y000350D02*
X000663Y004950D01*
X004067Y004950D01*
X004025Y004909D01*
X003983Y004806D01*
X003983Y004694D01*
X004025Y004591D01*
X004073Y004544D01*
X004073Y004406D01*
X004025Y004359D01*
X003983Y004256D01*
X003983Y004144D01*
X004025Y004041D01*
X004073Y003994D01*
X004073Y003856D01*
X004025Y003809D01*
X003983Y003706D01*
X003983Y003594D01*
X004025Y003491D01*
X004104Y003413D01*
X004207Y003370D01*
X004319Y003370D01*
X004421Y003413D01*
X004500Y003491D01*
X004543Y003594D01*
X004543Y003661D01*
X005042Y004160D01*
X008409Y004160D01*
X008560Y003926D01*
X008556Y003922D01*
X008483Y003745D01*
X008483Y003555D01*
X008556Y003378D01*
X008691Y003243D01*
X008867Y003170D01*
X009058Y003170D01*
X009235Y003243D01*
X009370Y003378D01*
X009443Y003555D01*
X009443Y003745D01*
X009370Y003922D01*
X009235Y004057D01*
X009058Y004130D01*
X008880Y004130D01*
X008861Y004160D01*
X009557Y004160D01*
X009604Y004113D01*
X009707Y004070D01*
X009819Y004070D01*
X009921Y004113D01*
X010000Y004191D01*
X010043Y004294D01*
X010043Y004308D01*
X010144Y004376D01*
X010157Y004370D01*
X010269Y004370D01*
X010371Y004413D01*
X010450Y004491D01*
X010493Y004594D01*
X010493Y004706D01*
X010450Y004809D01*
X010371Y004887D01*
X010269Y004930D01*
X010157Y004930D01*
X010054Y004887D01*
X009975Y004809D01*
X009933Y004706D01*
X009933Y004692D01*
X009832Y004624D01*
X009819Y004630D01*
X009726Y004630D01*
X010046Y004950D01*
X013880Y004950D01*
X014380Y004450D01*
X015546Y004450D01*
X015663Y004567D01*
X016046Y004950D01*
X018580Y004950D01*
X019413Y004117D01*
X019413Y004100D01*
X018621Y004100D01*
X018563Y004041D01*
X018563Y003959D01*
X018621Y003900D01*
X019413Y003900D01*
X019413Y003300D01*
X018721Y003300D01*
X018663Y003241D01*
X018663Y003159D01*
X018721Y003100D01*
X019413Y003100D01*
X019413Y003010D01*
X017397Y003010D01*
X017303Y002916D01*
X017303Y002716D01*
X016897Y002310D01*
X016302Y002310D01*
X016443Y002451D01*
X016443Y002849D01*
X016162Y003130D01*
X015764Y003130D01*
X015729Y003095D01*
X015613Y003212D01*
X015613Y003212D01*
X015525Y003300D01*
X015348Y003300D01*
X015483Y003435D01*
X015483Y003600D01*
X015013Y003600D01*
X015013Y003700D01*
X015483Y003700D01*
X015483Y003865D01*
X015331Y004017D01*
X015643Y004009D01*
X015483Y003849D01*
X015483Y003451D01*
X015764Y003170D01*
X016162Y003170D01*
X016443Y003451D01*
X016443Y003849D01*
X016162Y004130D01*
X016113Y004130D01*
X016113Y004148D01*
X016114Y004208D01*
X016113Y004210D01*
X016113Y004212D01*
X019318Y004212D01*
X019413Y004114D02*
X016178Y004114D01*
X016277Y004015D02*
X017213Y004015D01*
X017213Y004041D02*
X017213Y003959D01*
X017213Y003759D01*
X017271Y003700D01*
X017354Y003700D01*
X017413Y003759D01*
X017413Y003900D01*
X018204Y003900D01*
X018263Y003959D01*
X018263Y004041D01*
X018204Y004100D01*
X017271Y004100D01*
X017213Y004041D01*
X017213Y003917D02*
X016375Y003917D01*
X016443Y003818D02*
X017213Y003818D01*
X017413Y003818D02*
X019413Y003818D01*
X019413Y003720D02*
X017374Y003720D01*
X017252Y003720D02*
X016443Y003720D01*
X016443Y003621D02*
X019413Y003621D01*
X019413Y003523D02*
X016443Y003523D01*
X016416Y003424D02*
X017213Y003424D01*
X017213Y003441D02*
X017213Y003159D01*
X017271Y003100D01*
X017354Y003100D01*
X018354Y003100D01*
X018413Y003159D01*
X018413Y003241D01*
X018354Y003300D01*
X017413Y003300D01*
X017413Y003441D01*
X017354Y003500D01*
X017271Y003500D01*
X017213Y003441D01*
X017413Y003424D02*
X019413Y003424D01*
X019413Y003326D02*
X017413Y003326D01*
X017213Y003326D02*
X016317Y003326D01*
X016219Y003227D02*
X017213Y003227D01*
X017243Y003129D02*
X016163Y003129D01*
X016262Y003030D02*
X019413Y003030D01*
X019413Y002850D02*
X019413Y002350D01*
X017463Y002350D01*
X017463Y002850D01*
X019413Y002850D01*
X019413Y002833D02*
X017463Y002833D01*
X017463Y002735D02*
X019413Y002735D01*
X019413Y002636D02*
X017463Y002636D01*
X017463Y002650D02*
X017963Y002650D01*
X017463Y002650D02*
X016963Y002150D01*
X015463Y002150D01*
X014963Y002650D01*
X013963Y002636D02*
X009443Y002636D01*
X009443Y002555D02*
X009370Y002378D01*
X009235Y002243D01*
X009058Y002170D01*
X008867Y002170D01*
X008691Y002243D01*
X008556Y002378D01*
X008483Y002555D01*
X008483Y002745D01*
X008556Y002922D01*
X008691Y003057D01*
X008867Y003130D01*
X009058Y003130D01*
X009235Y003057D01*
X009370Y002922D01*
X009443Y002745D01*
X009443Y002555D01*
X009436Y002538D02*
X013888Y002538D01*
X013963Y002612D02*
X012801Y001450D01*
X011351Y001450D01*
X010777Y000876D01*
X010769Y000880D01*
X010657Y000880D01*
X010554Y000837D01*
X010475Y000759D01*
X010433Y000656D01*
X010433Y000544D01*
X010475Y000441D01*
X010554Y000363D01*
X010585Y000350D01*
X010046Y000350D01*
X009663Y000733D01*
X009546Y000850D01*
X008380Y000850D01*
X007880Y000350D01*
X000663Y000350D01*
X000663Y000371D02*
X007901Y000371D01*
X007999Y000469D02*
X000663Y000469D01*
X000663Y000568D02*
X008098Y000568D01*
X008196Y000666D02*
X000663Y000666D01*
X000663Y000765D02*
X008295Y000765D01*
X008691Y001243D02*
X008867Y001170D01*
X009058Y001170D01*
X009235Y001243D01*
X009370Y001378D01*
X009443Y001555D01*
X009443Y001745D01*
X009370Y001922D01*
X009235Y002057D01*
X009058Y002130D01*
X008867Y002130D01*
X008691Y002057D01*
X008556Y001922D01*
X008483Y001745D01*
X008483Y001555D01*
X008556Y001378D01*
X008691Y001243D01*
X008677Y001257D02*
X000663Y001257D01*
X000663Y001159D02*
X011059Y001159D01*
X011158Y001257D02*
X009249Y001257D01*
X009347Y001356D02*
X011256Y001356D01*
X010961Y001060D02*
X000663Y001060D01*
X000663Y000962D02*
X010862Y000962D01*
X010616Y000863D02*
X000663Y000863D01*
X000663Y001356D02*
X008578Y001356D01*
X008524Y001454D02*
X002652Y001454D01*
X002676Y001464D02*
X002783Y001570D01*
X002840Y001709D01*
X002840Y001859D01*
X002783Y001998D01*
X002676Y002104D01*
X002538Y002161D01*
X002388Y002161D01*
X002249Y002104D01*
X002143Y001998D01*
X002086Y001859D01*
X002086Y001709D01*
X002143Y001570D01*
X002249Y001464D01*
X002388Y001407D01*
X002538Y001407D01*
X002676Y001464D01*
X002765Y001553D02*
X008484Y001553D01*
X008483Y001651D02*
X002816Y001651D01*
X002840Y001750D02*
X008485Y001750D01*
X008525Y001848D02*
X002840Y001848D01*
X002804Y001947D02*
X008581Y001947D01*
X008679Y002045D02*
X002735Y002045D01*
X002580Y002144D02*
X013494Y002144D01*
X013593Y002242D02*
X009232Y002242D01*
X009332Y002341D02*
X013691Y002341D01*
X013790Y002439D02*
X009395Y002439D01*
X008693Y002242D02*
X000663Y002242D01*
X000663Y002144D02*
X002346Y002144D01*
X002191Y002045D02*
X000663Y002045D01*
X000663Y001947D02*
X002122Y001947D01*
X002086Y001848D02*
X000663Y001848D01*
X000663Y001750D02*
X002086Y001750D01*
X002110Y001651D02*
X000663Y001651D01*
X000663Y001553D02*
X002161Y001553D01*
X002274Y001454D02*
X000663Y001454D01*
X000663Y002341D02*
X008593Y002341D01*
X008531Y002439D02*
X000663Y002439D01*
X000663Y002538D02*
X008490Y002538D01*
X008483Y002636D02*
X000663Y002636D01*
X000663Y002735D02*
X008483Y002735D01*
X008519Y002833D02*
X000663Y002833D01*
X000663Y002932D02*
X008566Y002932D01*
X008664Y003030D02*
X000663Y003030D01*
X000663Y003129D02*
X008864Y003129D01*
X009062Y003129D02*
X013963Y003129D01*
X013963Y003227D02*
X009196Y003227D01*
X009317Y003326D02*
X013963Y003326D01*
X013963Y003424D02*
X009389Y003424D01*
X009430Y003523D02*
X013963Y003523D01*
X013963Y003621D02*
X009443Y003621D01*
X009443Y003720D02*
X013963Y003720D01*
X013963Y003818D02*
X009413Y003818D01*
X009372Y003917D02*
X013963Y003917D01*
X013963Y004015D02*
X009277Y004015D01*
X009098Y004114D02*
X009603Y004114D01*
X009922Y004114D02*
X013963Y004114D01*
X013963Y004140D02*
X013963Y002612D01*
X013963Y002735D02*
X009443Y002735D01*
X009407Y002833D02*
X013963Y002833D01*
X013963Y002932D02*
X009360Y002932D01*
X009262Y003030D02*
X013963Y003030D01*
X014263Y003262D02*
X014263Y004046D01*
X014614Y004036D01*
X014443Y003865D01*
X014443Y003700D01*
X014913Y003700D01*
X014913Y003600D01*
X014443Y003600D01*
X014443Y003435D01*
X014577Y003300D01*
X014301Y003300D01*
X014263Y003262D01*
X014263Y003326D02*
X014552Y003326D01*
X014453Y003424D02*
X014263Y003424D01*
X014263Y003523D02*
X014443Y003523D01*
X014263Y003621D02*
X014913Y003621D01*
X015013Y003621D02*
X015483Y003621D01*
X015483Y003523D02*
X015483Y003523D01*
X015472Y003424D02*
X015510Y003424D01*
X015608Y003326D02*
X015374Y003326D01*
X015598Y003227D02*
X015707Y003227D01*
X015696Y003129D02*
X015763Y003129D01*
X016360Y002932D02*
X017318Y002932D01*
X017303Y002833D02*
X016443Y002833D01*
X016443Y002735D02*
X017303Y002735D01*
X017223Y002636D02*
X016443Y002636D01*
X016443Y002538D02*
X017124Y002538D01*
X017026Y002439D02*
X016431Y002439D01*
X016332Y002341D02*
X016927Y002341D01*
X017463Y002439D02*
X019413Y002439D01*
X019413Y002538D02*
X017463Y002538D01*
X018383Y003129D02*
X018693Y003129D01*
X018663Y003227D02*
X018413Y003227D01*
X018221Y003917D02*
X018605Y003917D01*
X018563Y004015D02*
X018263Y004015D01*
X019219Y004311D02*
X015575Y004311D01*
X015965Y004300D02*
X014177Y004348D01*
X014175Y004350D01*
X014115Y004350D01*
X014055Y004352D01*
X014053Y004350D01*
X014051Y004350D01*
X014008Y004307D01*
X013965Y004266D01*
X013965Y004264D01*
X013963Y004262D01*
X013963Y004202D01*
X013961Y004142D01*
X013963Y004140D01*
X013963Y004212D02*
X010009Y004212D01*
X010046Y004311D02*
X014011Y004311D01*
X014322Y004508D02*
X010457Y004508D01*
X010493Y004606D02*
X014224Y004606D01*
X014125Y004705D02*
X010493Y004705D01*
X010453Y004803D02*
X014027Y004803D01*
X013928Y004902D02*
X010337Y004902D01*
X010088Y004902D02*
X009997Y004902D01*
X009973Y004803D02*
X009899Y004803D01*
X009933Y004705D02*
X009800Y004705D01*
X010363Y004409D02*
X019121Y004409D01*
X019022Y004508D02*
X015603Y004508D01*
X015702Y004606D02*
X018924Y004606D01*
X018825Y004705D02*
X015800Y004705D01*
X015899Y004803D02*
X018727Y004803D01*
X018628Y004902D02*
X015997Y004902D01*
X016025Y004300D02*
X015965Y004300D01*
X016025Y004300D02*
X016027Y004298D01*
X016029Y004298D01*
X016070Y004255D01*
X016113Y004212D01*
X015405Y004015D02*
X015333Y004015D01*
X015432Y003917D02*
X015551Y003917D01*
X015483Y003818D02*
X015483Y003818D01*
X015483Y003720D02*
X015483Y003720D01*
X014494Y003917D02*
X014263Y003917D01*
X014263Y004015D02*
X014592Y004015D01*
X014443Y003818D02*
X014263Y003818D01*
X014263Y003720D02*
X014443Y003720D01*
X008730Y003227D02*
X002707Y003227D01*
X002676Y003196D02*
X002783Y003302D01*
X002840Y003441D01*
X002840Y003591D01*
X002783Y003730D01*
X002676Y003836D01*
X002538Y003893D01*
X002388Y003893D01*
X002249Y003836D01*
X002143Y003730D01*
X002086Y003591D01*
X002086Y003441D01*
X002143Y003302D01*
X002249Y003196D01*
X002388Y003139D01*
X002538Y003139D01*
X002676Y003196D01*
X002219Y003227D02*
X000663Y003227D01*
X000663Y003326D02*
X002134Y003326D01*
X002093Y003424D02*
X000663Y003424D01*
X000663Y003523D02*
X002086Y003523D01*
X002098Y003621D02*
X000663Y003621D01*
X000663Y003720D02*
X002139Y003720D01*
X002231Y003818D02*
X000663Y003818D01*
X000663Y003917D02*
X004073Y003917D01*
X004052Y004015D02*
X000663Y004015D01*
X000663Y004114D02*
X003996Y004114D01*
X003983Y004212D02*
X000663Y004212D01*
X000663Y004311D02*
X004006Y004311D01*
X004073Y004409D02*
X000663Y004409D01*
X000663Y004508D02*
X004073Y004508D01*
X004019Y004606D02*
X000663Y004606D01*
X000663Y004705D02*
X003983Y004705D01*
X003983Y004803D02*
X000663Y004803D01*
X000663Y004902D02*
X004023Y004902D01*
X004995Y004114D02*
X008439Y004114D01*
X008502Y004015D02*
X004897Y004015D01*
X004798Y003917D02*
X008554Y003917D01*
X008513Y003818D02*
X004700Y003818D01*
X004601Y003720D02*
X008483Y003720D01*
X008483Y003621D02*
X004543Y003621D01*
X004513Y003523D02*
X008496Y003523D01*
X008537Y003424D02*
X004433Y003424D01*
X004093Y003424D02*
X002833Y003424D01*
X002840Y003523D02*
X004013Y003523D01*
X003983Y003621D02*
X002828Y003621D01*
X002787Y003720D02*
X003989Y003720D01*
X004035Y003818D02*
X002694Y003818D01*
X002792Y003326D02*
X008608Y003326D01*
X009247Y002045D02*
X013396Y002045D01*
X013297Y001947D02*
X009345Y001947D01*
X009400Y001848D02*
X013199Y001848D01*
X013100Y001750D02*
X009441Y001750D01*
X009443Y001651D02*
X013002Y001651D01*
X012903Y001553D02*
X009442Y001553D01*
X009401Y001454D02*
X012805Y001454D01*
X014963Y001650D02*
X015663Y000950D01*
X016113Y000950D01*
X016813Y001650D01*
X017463Y001650D01*
X018463Y001650D01*
X019413Y001651D02*
X017463Y001651D01*
X017463Y001553D02*
X019413Y001553D01*
X019413Y001454D02*
X017463Y001454D01*
X017463Y001356D02*
X019413Y001356D01*
X019413Y001350D02*
X017463Y001350D01*
X017463Y001850D01*
X019413Y001850D01*
X019413Y001350D01*
X019413Y001750D02*
X017463Y001750D01*
X017463Y001848D02*
X019413Y001848D01*
X010546Y000371D02*
X010025Y000371D01*
X009927Y000469D02*
X010464Y000469D01*
X010433Y000568D02*
X009828Y000568D01*
X009730Y000666D02*
X010437Y000666D01*
X010481Y000765D02*
X009631Y000765D01*
D15*
X010713Y000600D02*
X011413Y001300D01*
X012863Y001300D01*
X014113Y002550D01*
X014113Y004200D01*
X015963Y004150D01*
X015963Y003650D01*
X015463Y003150D02*
X014363Y003150D01*
X014363Y002350D01*
X013013Y001000D01*
X012163Y001000D01*
X011713Y000600D01*
X012713Y000600D02*
X013463Y000600D01*
X014363Y001500D01*
X014363Y002050D01*
X014963Y002650D01*
X015463Y003150D02*
X015963Y002650D01*
M02*
