G75*
G70*
%OFA0B0*%
%FSLAX24Y24*%
%IPPOS*%
%LPD*%
%AMOC8*
5,1,8,0,0,1.08239X$1,22.5*
%
%ADD10C,0.0000*%
%ADD11C,0.0040*%
%ADD12C,0.0060*%
%ADD13C,0.0080*%
%ADD14C,0.0020*%
%ADD15C,0.0220*%
D10*
X000463Y000150D02*
X007963Y000150D01*
X008463Y000650D01*
X009463Y000650D01*
X009963Y000150D01*
X013963Y000150D01*
X014463Y000650D01*
X015463Y000650D01*
X015963Y000150D01*
X018613Y000150D01*
X019613Y001150D01*
X019613Y004200D01*
X018663Y005150D01*
X015963Y005150D01*
X015463Y004650D01*
X014463Y004650D01*
X013963Y005150D01*
X009963Y005150D01*
X009463Y004650D01*
X008463Y004650D01*
X007963Y005150D01*
X000463Y005150D01*
X000463Y005146D02*
X000463Y000150D01*
X002286Y001784D02*
X002288Y001810D01*
X002294Y001836D01*
X002304Y001861D01*
X002317Y001884D01*
X002333Y001904D01*
X002353Y001922D01*
X002375Y001937D01*
X002398Y001949D01*
X002424Y001957D01*
X002450Y001961D01*
X002476Y001961D01*
X002502Y001957D01*
X002528Y001949D01*
X002552Y001937D01*
X002573Y001922D01*
X002593Y001904D01*
X002609Y001884D01*
X002622Y001861D01*
X002632Y001836D01*
X002638Y001810D01*
X002640Y001784D01*
X002638Y001758D01*
X002632Y001732D01*
X002622Y001707D01*
X002609Y001684D01*
X002593Y001664D01*
X002573Y001646D01*
X002551Y001631D01*
X002528Y001619D01*
X002502Y001611D01*
X002476Y001607D01*
X002450Y001607D01*
X002424Y001611D01*
X002398Y001619D01*
X002374Y001631D01*
X002353Y001646D01*
X002333Y001664D01*
X002317Y001684D01*
X002304Y001707D01*
X002294Y001732D01*
X002288Y001758D01*
X002286Y001784D01*
X002286Y003516D02*
X002288Y003542D01*
X002294Y003568D01*
X002304Y003593D01*
X002317Y003616D01*
X002333Y003636D01*
X002353Y003654D01*
X002375Y003669D01*
X002398Y003681D01*
X002424Y003689D01*
X002450Y003693D01*
X002476Y003693D01*
X002502Y003689D01*
X002528Y003681D01*
X002552Y003669D01*
X002573Y003654D01*
X002593Y003636D01*
X002609Y003616D01*
X002622Y003593D01*
X002632Y003568D01*
X002638Y003542D01*
X002640Y003516D01*
X002638Y003490D01*
X002632Y003464D01*
X002622Y003439D01*
X002609Y003416D01*
X002593Y003396D01*
X002573Y003378D01*
X002551Y003363D01*
X002528Y003351D01*
X002502Y003343D01*
X002476Y003339D01*
X002450Y003339D01*
X002424Y003343D01*
X002398Y003351D01*
X002374Y003363D01*
X002353Y003378D01*
X002333Y003396D01*
X002317Y003416D01*
X002304Y003439D01*
X002294Y003464D01*
X002288Y003490D01*
X002286Y003516D01*
D11*
X005080Y003255D02*
X005080Y003015D01*
X005080Y003095D02*
X005201Y003095D01*
X005241Y003135D01*
X005241Y003215D01*
X005201Y003255D01*
X005080Y003255D01*
X005467Y003255D02*
X005587Y003255D01*
X005627Y003215D01*
X005627Y003055D01*
X005587Y003015D01*
X005467Y003015D01*
X005467Y003255D01*
X005725Y003135D02*
X005885Y003135D01*
X005805Y003215D02*
X005805Y003055D01*
X005378Y003055D02*
X005378Y003015D01*
X005338Y003015D01*
X005338Y003055D01*
X005378Y003055D01*
X005241Y003015D02*
X005161Y003095D01*
X006533Y003070D02*
X006643Y003070D01*
X006680Y003107D01*
X006680Y003253D01*
X006643Y003290D01*
X006533Y003290D01*
X006533Y003070D01*
X006772Y003070D02*
X006772Y003107D01*
X006919Y003253D01*
X006919Y003290D01*
X006772Y003290D01*
X007131Y003290D02*
X007241Y003290D01*
X007278Y003253D01*
X007278Y003107D01*
X007241Y003070D01*
X007131Y003070D01*
X007131Y003290D01*
X007444Y003253D02*
X007444Y003107D01*
X007371Y003180D02*
X007518Y003180D01*
X007048Y003107D02*
X007048Y003070D01*
X007012Y003070D01*
X007012Y003107D01*
X007048Y003107D01*
X006919Y003070D02*
X006772Y003070D01*
X005890Y002218D02*
X005854Y002255D01*
X005780Y002255D01*
X005743Y002218D01*
X005651Y002218D02*
X005651Y002145D01*
X005614Y002108D01*
X005504Y002108D01*
X005504Y002035D02*
X005504Y002255D01*
X005614Y002255D01*
X005651Y002218D01*
X005817Y002145D02*
X005854Y002145D01*
X005890Y002108D01*
X005890Y002072D01*
X005854Y002035D01*
X005780Y002035D01*
X005743Y002072D01*
X005651Y002035D02*
X005577Y002108D01*
X005854Y002145D02*
X005890Y002182D01*
X005890Y002218D01*
X008003Y001692D02*
X008076Y001619D01*
X008123Y001596D02*
X008123Y001669D01*
X008159Y001706D01*
X008196Y001706D01*
X008233Y001669D01*
X008269Y001706D01*
X008306Y001706D01*
X008343Y001669D01*
X008343Y001596D01*
X008306Y001559D01*
X008223Y001619D02*
X008223Y001766D01*
X008269Y001799D02*
X008343Y001872D01*
X008269Y001946D01*
X008123Y001946D01*
X008159Y002038D02*
X008123Y002075D01*
X008123Y002148D01*
X008159Y002185D01*
X008196Y002185D01*
X008233Y002148D01*
X008269Y002185D01*
X008306Y002185D01*
X008343Y002148D01*
X008343Y002075D01*
X008306Y002038D01*
X008233Y002112D02*
X008233Y002148D01*
X008269Y001799D02*
X008123Y001799D01*
X008223Y001692D02*
X008003Y001692D01*
X008233Y001669D02*
X008233Y001633D01*
X008159Y001559D02*
X008123Y001596D01*
X008113Y001526D02*
X008039Y001526D01*
X008003Y001489D01*
X008003Y001379D01*
X008223Y001379D01*
X008149Y001379D02*
X008149Y001489D01*
X008113Y001526D01*
X008159Y001467D02*
X008123Y001430D01*
X008123Y001357D01*
X008159Y001320D01*
X008306Y001320D01*
X008343Y001357D01*
X008343Y001430D01*
X008306Y001467D01*
X008003Y001287D02*
X008003Y001213D01*
X008003Y001250D02*
X008186Y001250D01*
X008223Y001213D01*
X008223Y001177D01*
X008186Y001140D01*
X010240Y001296D02*
X010276Y001259D01*
X010350Y001259D01*
X010387Y001296D01*
X010387Y001443D01*
X010350Y001480D01*
X010276Y001480D01*
X010240Y001443D01*
X010240Y001296D01*
X010313Y001333D02*
X010387Y001259D01*
X010589Y001259D02*
X010589Y001480D01*
X010479Y001369D01*
X010626Y001369D01*
X011240Y001296D02*
X011276Y001259D01*
X011350Y001259D01*
X011387Y001296D01*
X011387Y001443D01*
X011350Y001480D01*
X011276Y001480D01*
X011240Y001443D01*
X011240Y001296D01*
X011313Y001333D02*
X011387Y001259D01*
X011479Y001296D02*
X011516Y001259D01*
X011589Y001259D01*
X011626Y001296D01*
X011626Y001333D01*
X011589Y001369D01*
X011553Y001369D01*
X011589Y001369D02*
X011626Y001406D01*
X011626Y001443D01*
X011589Y001480D01*
X011516Y001480D01*
X011479Y001443D01*
X012240Y001443D02*
X012240Y001296D01*
X012276Y001259D01*
X012350Y001259D01*
X012387Y001296D01*
X012387Y001443D01*
X012350Y001480D01*
X012276Y001480D01*
X012240Y001443D01*
X012313Y001333D02*
X012387Y001259D01*
X012479Y001259D02*
X012626Y001406D01*
X012626Y001443D01*
X012589Y001480D01*
X012516Y001480D01*
X012479Y001443D01*
X012479Y001259D02*
X012626Y001259D01*
X013290Y001296D02*
X013326Y001259D01*
X013400Y001259D01*
X013437Y001296D01*
X013437Y001443D01*
X013400Y001480D01*
X013326Y001480D01*
X013290Y001443D01*
X013290Y001296D01*
X013363Y001333D02*
X013437Y001259D01*
X013529Y001259D02*
X013676Y001259D01*
X013603Y001259D02*
X013603Y001480D01*
X013529Y001406D01*
X014123Y001467D02*
X014269Y001467D01*
X014343Y001393D01*
X014269Y001320D01*
X014123Y001320D01*
X014159Y001559D02*
X014306Y001559D01*
X014343Y001596D01*
X014343Y001669D01*
X014306Y001706D01*
X014159Y001706D02*
X014123Y001669D01*
X014123Y001596D01*
X014159Y001559D01*
X014159Y001799D02*
X014306Y001799D01*
X014343Y001836D01*
X014343Y001909D01*
X014306Y001946D01*
X014159Y001946D02*
X014123Y001909D01*
X014123Y001836D01*
X014159Y001799D01*
X014123Y002170D02*
X014196Y002243D01*
X014123Y002317D01*
X014343Y002317D01*
X014306Y002409D02*
X014159Y002409D01*
X014123Y002446D01*
X014123Y002519D01*
X014159Y002556D01*
X014306Y002556D01*
X014343Y002519D01*
X014343Y002446D01*
X014306Y002409D01*
X014306Y002649D02*
X014343Y002686D01*
X014343Y002759D01*
X014306Y002796D01*
X014269Y002796D01*
X014233Y002759D01*
X014233Y002686D01*
X014196Y002649D01*
X014159Y002649D01*
X014123Y002686D01*
X014123Y002759D01*
X014159Y002796D01*
X014123Y002888D02*
X014123Y002962D01*
X014123Y002925D02*
X014343Y002925D01*
X014343Y002888D02*
X014343Y002962D01*
X014256Y003320D02*
X014109Y003320D01*
X014073Y003357D01*
X014073Y003430D01*
X014109Y003467D01*
X014183Y003467D02*
X014183Y003393D01*
X014183Y003467D02*
X014256Y003467D01*
X014293Y003430D01*
X014293Y003357D01*
X014256Y003320D01*
X014293Y003559D02*
X014073Y003559D01*
X014293Y003706D01*
X014073Y003706D01*
X014073Y003799D02*
X014073Y003909D01*
X014109Y003946D01*
X014256Y003946D01*
X014293Y003909D01*
X014293Y003799D01*
X014073Y003799D01*
X011903Y003577D02*
X011903Y003431D01*
X011756Y003577D01*
X011719Y003577D01*
X011683Y003541D01*
X011683Y003467D01*
X011719Y003431D01*
X011683Y003338D02*
X011866Y003338D01*
X011903Y003301D01*
X011903Y003228D01*
X011866Y003191D01*
X011683Y003191D01*
X014123Y002170D02*
X014343Y002170D01*
X016673Y002357D02*
X016709Y002320D01*
X016746Y002320D01*
X016783Y002357D01*
X016783Y002430D01*
X016819Y002467D01*
X016856Y002467D01*
X016893Y002430D01*
X016893Y002357D01*
X016856Y002320D01*
X016673Y002357D02*
X016673Y002430D01*
X016709Y002467D01*
X016709Y002559D02*
X016856Y002559D01*
X016893Y002596D01*
X016893Y002669D01*
X016856Y002706D01*
X016709Y002706D02*
X016673Y002669D01*
X016673Y002596D01*
X016709Y002559D01*
X017133Y002578D02*
X017133Y002651D01*
X017169Y002688D01*
X017133Y002781D02*
X017353Y002781D01*
X017279Y002781D02*
X017133Y002927D01*
X017243Y002817D02*
X017353Y002927D01*
X016893Y002946D02*
X016783Y002836D01*
X016819Y002799D02*
X016673Y002946D01*
X016673Y002799D02*
X016893Y002799D01*
X017316Y002688D02*
X017353Y002651D01*
X017353Y002578D01*
X017316Y002541D01*
X017169Y002541D01*
X017133Y002578D01*
X017169Y002449D02*
X017133Y002412D01*
X017133Y002338D01*
X017169Y002302D01*
X017206Y002302D01*
X017243Y002338D01*
X017243Y002412D01*
X017279Y002449D01*
X017316Y002449D01*
X017353Y002412D01*
X017353Y002338D01*
X017316Y002302D01*
X017316Y001977D02*
X017169Y001977D01*
X017133Y001941D01*
X017133Y001867D01*
X017169Y001831D01*
X017316Y001831D01*
X017353Y001867D01*
X017353Y001941D01*
X017316Y001977D01*
X016943Y001919D02*
X016943Y001845D01*
X016906Y001808D01*
X016759Y001808D01*
X016723Y001845D01*
X016723Y001919D01*
X016759Y001955D01*
X016906Y001955D01*
X016943Y001919D01*
X016906Y001716D02*
X016943Y001679D01*
X016943Y001606D01*
X016906Y001569D01*
X016833Y001606D02*
X016833Y001679D01*
X016869Y001716D01*
X016906Y001716D01*
X016759Y001716D02*
X016723Y001679D01*
X016723Y001606D01*
X016759Y001569D01*
X016796Y001569D01*
X016833Y001606D01*
X017133Y001628D02*
X017169Y001591D01*
X017206Y001591D01*
X017243Y001628D01*
X017243Y001701D01*
X017279Y001738D01*
X017316Y001738D01*
X017353Y001701D01*
X017353Y001628D01*
X017316Y001591D01*
X017353Y001505D02*
X017353Y001432D01*
X017353Y001468D02*
X017133Y001468D01*
X017133Y001432D02*
X017133Y001505D01*
X016943Y001483D02*
X016943Y001409D01*
X016943Y001446D02*
X016723Y001446D01*
X016723Y001409D02*
X016723Y001483D01*
X017133Y001339D02*
X017353Y001339D01*
X017206Y001266D02*
X017133Y001339D01*
X016943Y001317D02*
X016723Y001317D01*
X016796Y001243D01*
X016723Y001170D01*
X016943Y001170D01*
X017133Y001192D02*
X017206Y001266D01*
X017133Y001192D02*
X017353Y001192D01*
X017133Y001628D02*
X017133Y001701D01*
X017169Y001738D01*
X015740Y000993D02*
X015704Y001030D01*
X015630Y001030D01*
X015593Y000993D01*
X015501Y000993D02*
X015501Y000920D01*
X015464Y000883D01*
X015354Y000883D01*
X015354Y000810D02*
X015354Y001030D01*
X015464Y001030D01*
X015501Y000993D01*
X015593Y000810D02*
X015740Y000957D01*
X015740Y000993D01*
X015261Y001030D02*
X015188Y001030D01*
X015225Y001030D02*
X015225Y000847D01*
X015188Y000810D01*
X015151Y000810D01*
X015115Y000847D01*
X015593Y000810D02*
X015740Y000810D01*
X017133Y003302D02*
X017133Y003412D01*
X017169Y003449D01*
X017243Y003449D01*
X017279Y003412D01*
X017279Y003302D01*
X017353Y003302D02*
X017133Y003302D01*
X016843Y003370D02*
X016623Y003370D01*
X016623Y003480D01*
X016659Y003517D01*
X016733Y003517D01*
X016769Y003480D01*
X016769Y003370D01*
X016769Y003443D02*
X016843Y003517D01*
X017133Y003578D02*
X017169Y003541D01*
X017206Y003541D01*
X017243Y003578D01*
X017243Y003651D01*
X017279Y003688D01*
X017316Y003688D01*
X017353Y003651D01*
X017353Y003578D01*
X017316Y003541D01*
X017133Y003578D02*
X017133Y003651D01*
X017169Y003688D01*
X016843Y003719D02*
X016843Y003646D01*
X016806Y003609D01*
X016733Y003646D02*
X016733Y003719D01*
X016769Y003756D01*
X016806Y003756D01*
X016843Y003719D01*
X016733Y003646D02*
X016696Y003609D01*
X016659Y003609D01*
X016623Y003646D01*
X016623Y003719D01*
X016659Y003756D01*
X016623Y003849D02*
X016623Y003996D01*
X016623Y003922D02*
X016843Y003922D01*
X017133Y003927D02*
X017133Y003781D01*
X017133Y003854D02*
X017353Y003854D01*
X017353Y003449D02*
X017279Y003375D01*
X012143Y004810D02*
X012143Y005030D01*
X012254Y005030D01*
X012290Y004993D01*
X012290Y004920D01*
X012254Y004883D01*
X012143Y004883D01*
X012051Y004883D02*
X012051Y004847D01*
X012014Y004810D01*
X011904Y004810D01*
X011904Y005030D01*
X012014Y005030D01*
X012051Y004993D01*
X012051Y004957D01*
X012014Y004920D01*
X011904Y004920D01*
X012014Y004920D02*
X012051Y004883D01*
X011811Y004847D02*
X011775Y004810D01*
X011701Y004810D01*
X011665Y004847D01*
X011665Y004993D01*
X011701Y005030D01*
X011775Y005030D01*
X011811Y004993D01*
X007518Y004930D02*
X007371Y004930D01*
X007278Y004857D02*
X007278Y005003D01*
X007241Y005040D01*
X007131Y005040D01*
X007131Y004820D01*
X007241Y004820D01*
X007278Y004857D01*
X007048Y004857D02*
X007048Y004820D01*
X007012Y004820D01*
X007012Y004857D01*
X007048Y004857D01*
X006919Y004820D02*
X006772Y004820D01*
X006772Y004857D01*
X006919Y005003D01*
X006919Y005040D01*
X006772Y005040D01*
X006680Y005003D02*
X006643Y005040D01*
X006533Y005040D01*
X006533Y004820D01*
X006643Y004820D01*
X006680Y004857D01*
X006680Y005003D01*
X005651Y004218D02*
X005614Y004255D01*
X005504Y004255D01*
X005504Y004035D01*
X005614Y004035D01*
X005651Y004072D01*
X005651Y004218D01*
X005743Y004145D02*
X005890Y004145D01*
X005421Y004072D02*
X005421Y004035D01*
X005384Y004035D01*
X005384Y004072D01*
X005421Y004072D01*
X005292Y004035D02*
X005218Y004108D01*
X005255Y004108D02*
X005145Y004108D01*
X005145Y004035D02*
X005145Y004255D01*
X005255Y004255D01*
X005292Y004218D01*
X005292Y004145D01*
X005255Y004108D01*
X005373Y001596D02*
X005519Y001596D01*
X005593Y001522D01*
X005519Y001449D01*
X005373Y001449D01*
X005373Y001356D02*
X005373Y001209D01*
X005483Y001209D01*
X005446Y001283D01*
X005446Y001319D01*
X005483Y001356D01*
X005556Y001356D01*
X005593Y001319D01*
X005593Y001246D01*
X005556Y001209D01*
X005556Y001117D02*
X005593Y001080D01*
X005593Y001007D01*
X005556Y000970D01*
X005409Y000970D01*
X005373Y001007D01*
X005373Y001080D01*
X005409Y001117D01*
D12*
X006203Y001531D02*
X006240Y001531D01*
X006203Y001531D02*
X006203Y002169D01*
X006240Y002169D01*
X006557Y002169D02*
X006968Y002169D01*
X007286Y002169D02*
X007323Y002169D01*
X007323Y001531D01*
X007286Y001531D01*
X006968Y001531D02*
X006931Y001531D01*
X006594Y001531D02*
X006557Y001531D01*
X005581Y002414D02*
X005345Y002414D01*
X005345Y002886D02*
X005581Y002886D01*
X005581Y003414D02*
X005345Y003414D01*
X005345Y003886D02*
X005581Y003886D01*
X005581Y004414D02*
X005345Y004414D01*
X005345Y004886D02*
X005581Y004886D01*
X010953Y004080D02*
X012963Y004080D01*
X012963Y002220D02*
X010953Y002220D01*
D13*
X009463Y002400D02*
X009213Y002150D01*
X009463Y001900D01*
X009463Y001400D01*
X009213Y001150D01*
X008713Y001150D01*
X008463Y001400D01*
X008463Y001900D01*
X008713Y002150D01*
X008463Y002400D01*
X008463Y002900D01*
X008713Y003150D01*
X008463Y003400D01*
X008463Y003900D01*
X008713Y004150D01*
X009213Y004150D01*
X009463Y003900D01*
X009463Y003400D01*
X009213Y003150D01*
X009463Y002900D01*
X009463Y002400D01*
X010030Y001626D02*
X010030Y001311D01*
X010896Y001311D02*
X010896Y001626D01*
X010778Y001626D01*
X011030Y001626D02*
X011030Y001311D01*
X011896Y001311D02*
X011896Y001626D01*
X011778Y001626D01*
X012030Y001626D02*
X012030Y001311D01*
X012896Y001311D02*
X012896Y001626D01*
X012778Y001626D01*
X013030Y001626D02*
X013030Y001311D01*
X013896Y001311D02*
X013896Y001626D01*
X013778Y001626D01*
X013148Y001626D02*
X013030Y001626D01*
X012148Y001626D02*
X012030Y001626D01*
X011148Y001626D02*
X011030Y001626D01*
X010148Y001626D02*
X010030Y001626D01*
X014463Y001400D02*
X014463Y001900D01*
X014713Y002150D01*
X016213Y002150D01*
X016463Y002400D01*
X016463Y002900D01*
X016213Y003150D01*
X014713Y003150D01*
X014463Y003400D01*
X014463Y003900D01*
X014713Y004150D01*
X016213Y004150D01*
X016463Y003900D01*
X016463Y003400D01*
X016213Y003150D01*
X014713Y003150D02*
X014463Y002900D01*
X014463Y002400D01*
X014713Y002150D01*
X016213Y002150D02*
X016463Y001900D01*
X016463Y001400D01*
X016213Y001150D01*
X014713Y001150D01*
X014463Y001400D01*
X016595Y001400D02*
X016595Y001900D01*
X011216Y003860D02*
X011218Y003875D01*
X011224Y003888D01*
X011233Y003900D01*
X011244Y003909D01*
X011258Y003915D01*
X011273Y003917D01*
X011288Y003915D01*
X011301Y003909D01*
X011313Y003900D01*
X011322Y003889D01*
X011328Y003875D01*
X011330Y003860D01*
X011328Y003845D01*
X011322Y003832D01*
X011313Y003820D01*
X011302Y003811D01*
X011288Y003805D01*
X011273Y003803D01*
X011258Y003805D01*
X011245Y003811D01*
X011233Y003820D01*
X011224Y003831D01*
X011218Y003845D01*
X011216Y003860D01*
X007317Y003906D02*
X006766Y003906D01*
X006766Y003394D01*
X007317Y003394D01*
X006766Y003394D02*
X006609Y003394D01*
X006609Y003906D02*
X006766Y003906D01*
X006766Y004144D02*
X006609Y004144D01*
X006766Y004144D02*
X006766Y004656D01*
X007317Y004656D01*
X006766Y004656D02*
X006609Y004656D01*
X006766Y004144D02*
X007317Y004144D01*
X003762Y003870D02*
X003762Y003516D01*
X002778Y004146D02*
X001951Y004146D01*
X003762Y001784D02*
X003762Y001430D01*
X002778Y001154D02*
X001951Y001154D01*
D14*
X006523Y001710D02*
X006603Y001710D01*
X006563Y001710D02*
X006563Y001950D01*
X006523Y001950D02*
X006603Y001950D01*
X006682Y001910D02*
X006682Y001750D01*
X006722Y001710D01*
X006803Y001710D01*
X006843Y001750D01*
X006922Y001710D02*
X007082Y001710D01*
X007002Y001710D02*
X007002Y001950D01*
X006922Y001870D01*
X006843Y001910D02*
X006803Y001950D01*
X006722Y001950D01*
X006682Y001910D01*
D15*
X007801Y001800D02*
X007825Y001800D01*
X005025Y001300D02*
X005001Y001300D01*
X012013Y004488D02*
X012013Y004512D01*
M02*
